<svg width="100%" height="100%" viewBox="0 0 1317 629" fill="none" xmlns="http://www.w3.org/2000/svg">
<g>
<mask id="mask0_1_156" style="mask-type:luminance" maskUnits="userSpaceOnUse" x="-1065" y="-531" width="2667" height="2668">
<path d="M1602 -530L-1064.67 -530L-1064.67 2136.67L1602 2136.67L1602 -530Z" fill="white"/>
</mask>
<g mask="url(#mask0_1_156)">
<path d="M810.602 478.597C803.379 480.27 797.055 481.706 793.026 482.56C773.03 486.797 757.895 495.9 751.533 507.518C747.179 515.461 746.843 524.48 750.538 534.328C753.693 542.736 759.415 548.058 767.546 550.144C775.339 552.144 780.297 552.254 791.085 548.73C793.437 547.945 796.921 546.493 796.921 546.493C811.966 540.181 816.081 537.698 816.081 537.698C813.203 540.341 812.459 540.804 809.277 543.276C796.917 553.893 779.623 558.733 766.225 555.294C756.451 552.788 749.306 546.182 745.558 536.196C741.297 524.832 741.738 514.322 746.87 504.962C753.611 492.621 768.849 482.912 788.842 478.069" fill="#918F90"/>
</g>
<mask id="mask1_1_156" style="mask-type:luminance" maskUnits="userSpaceOnUse" x="-1065" y="-531" width="2667" height="2668">
<path d="M1602 -530L-1064.67 -530L-1064.67 2136.67L1602 2136.67L1602 -530Z" fill="white"/>
</mask>
<g mask="url(#mask1_1_156)">
<path d="M955.973 417.141C966.288 414.134 976.625 411.204 987.018 408.485C997.39 405.64 1007.79 403.146 1018.3 401.014C1039.3 396.772 1060.61 394.013 1082.01 393.062C1103.39 392.112 1124.87 392.94 1146.04 395.948C1167.2 398.964 1188.1 404.122 1207.89 412.093C1217.78 416.088 1227.38 420.774 1236.44 426.333C1245.5 431.889 1254.05 438.293 1261.52 445.761C1268.96 453.218 1275.4 461.788 1279.39 471.416C1281.38 476.216 1282.72 481.268 1283.19 486.394C1283.67 491.518 1283.23 496.704 1281.9 501.66C1279.23 511.626 1272.88 520.35 1265.07 527.262C1257.19 534.186 1247.98 539.609 1238.22 543.633C1228.45 547.678 1218.11 550.352 1207.62 551.981C1197.12 553.641 1186.45 554.225 1175.79 554.044C1154.47 553.636 1133.23 550.104 1112.63 544.445C1092.03 538.722 1072.01 530.884 1052.91 521.249C1014.68 501.989 979.988 475.774 950.806 444.452C944.665 437.926 938.881 431.018 932.965 424.182C940.612 421.764 948.277 419.4 955.973 417.141ZM813.038 472.705C821.097 468.686 827.309 465.604 828.945 464.793C829.205 464.934 829.476 465.064 829.766 465.161C832.388 466.032 835.218 464.613 836.089 461.992C836.296 461.37 836.365 460.737 836.329 460.121C855.368 451.6 874.961 444.056 894.664 437.017C906.025 432.972 917.46 429.13 928.948 425.453C935.216 432.67 941.35 440.061 947.962 447.098C977.433 478.774 1012.47 505.293 1051.12 524.798C1070.44 534.556 1090.69 542.504 1111.56 548.318C1132.44 554.068 1153.99 557.674 1175.72 558.106C1186.58 558.3 1197.48 557.712 1208.25 556.018C1219.01 554.353 1229.66 551.614 1239.78 547.43C1249.91 543.264 1259.5 537.641 1267.81 530.352C1276.05 523.073 1282.97 513.686 1285.91 502.745C1287.37 497.31 1287.86 491.606 1287.34 486.016C1286.82 480.421 1285.37 474.958 1283.24 469.821C1278.96 459.521 1272.18 450.57 1264.45 442.833C1256.68 435.09 1247.87 428.518 1238.58 422.834C1229.29 417.15 1219.48 412.381 1209.41 408.322C1189.24 400.23 1168.04 395.029 1146.6 391.998C1125.15 388.977 1103.43 388.168 1081.83 389.153C1060.22 390.138 1038.72 392.949 1017.54 397.252C1006.96 399.413 996.421 401.948 986.044 404.814C975.621 407.558 965.256 410.514 954.914 413.546C946.684 415.976 938.489 418.521 930.314 421.133C930.056 420.838 929.802 420.541 929.544 420.246C922.454 412.134 915.289 404.089 908.048 396.114C893.561 380.169 878.817 364.457 863.808 349.006C833.789 318.102 802.82 288.117 770.782 259.301C738.761 230.474 705.68 202.804 671.372 176.71C637.029 150.677 601.456 126.19 564.238 104.378C527.045 82.589 488.149 63.4224 447.332 49.2277C437.126 45.6971 426.788 42.5557 416.369 39.6957C405.918 36.9464 395.376 34.5478 384.742 32.5864C374.092 30.7171 363.361 29.2944 352.581 28.3717C341.826 27.5131 331.048 26.9117 320.258 26.6411C277.138 25.5357 233.673 29.3064 191.81 40.2451C170.905 45.7184 150.43 52.9957 130.956 62.4464C111.522 71.9197 92.9516 83.469 76.7809 98.009C72.7543 101.656 68.8916 105.496 65.2956 109.598C61.7076 113.704 58.3489 118.05 55.6009 122.873C54.2489 125.296 53.0169 127.822 52.2796 130.658C51.9276 132.077 51.6755 133.588 51.8982 135.264C52.0169 136.096 52.2876 136.988 52.8303 137.798C52.9569 138.002 53.1276 138.189 53.2809 138.378L53.7276 138.81C54.0169 139.11 54.3529 139.34 54.6769 139.585C57.3903 141.432 60.4383 141.765 63.2423 141.849C66.081 141.894 68.8422 141.569 71.5542 141.106C82.3702 139.08 92.5089 135.162 102.446 130.958C112.349 126.649 122.012 121.838 131.378 116.517C121.585 120.992 111.685 125.201 101.662 129.025C96.657 130.948 91.6063 132.742 86.5063 134.329C81.4156 135.928 76.2543 137.312 71.0583 138.157C68.4676 138.578 65.8569 138.854 63.3129 138.789C60.7996 138.721 58.2422 138.29 56.4849 137.032C55.5342 136.309 55.1476 135.853 55.0089 134.814C54.8689 133.816 55.0263 132.612 55.329 131.432C55.945 129.05 57.0743 126.686 58.3463 124.424C60.9303 119.889 64.1823 115.669 67.673 111.682C71.1743 107.696 74.9583 103.938 78.909 100.365C94.7876 86.1037 113.14 74.693 132.361 65.3424C151.625 56.009 171.909 48.8131 192.636 43.4024C234.144 32.5864 277.306 28.8624 320.17 29.9917C330.896 30.2691 341.612 30.8744 352.309 31.7357C362.974 32.6557 373.59 34.0717 384.138 35.9291C394.67 37.8797 405.12 40.2637 415.482 42.9984C425.816 45.8424 436.074 48.9664 446.206 52.4797C486.732 66.6037 525.425 85.6957 562.453 107.424C599.505 129.173 634.952 153.606 669.182 179.592C703.38 205.637 736.366 233.266 768.302 262.057C800.25 290.833 831.142 320.784 861.082 351.649C876.053 367.081 890.757 382.772 905.202 398.694C912.31 406.532 919.342 414.44 926.301 422.409C915.292 425.97 904.332 429.685 893.437 433.584C873.664 440.685 854.094 448.249 834.864 456.89C834.332 456.357 833.685 455.922 832.921 455.669C830.3 454.797 827.469 456.216 826.597 458.837C826.454 459.268 826.394 459.701 826.37 460.133C824.297 461.161 817.544 464.514 809.085 468.734" fill="#9CD7C6"/>
</g>
<mask id="mask2_1_156" style="mask-type:luminance" maskUnits="userSpaceOnUse" x="-1065" y="-531" width="2667" height="2668">
<path d="M1602 -530L-1064.67 -530L-1064.67 2136.67L1602 2136.67L1602 -530Z" fill="white"/>
</mask>
<g mask="url(#mask2_1_156)">
<path d="M813.038 472.705C821.097 468.686 827.309 465.604 828.945 464.793C829.205 464.934 829.476 465.064 829.766 465.161C832.388 466.032 835.218 464.613 836.089 461.992C836.296 461.37 836.365 460.737 836.329 460.121C855.368 451.6 874.961 444.056 894.664 437.017C906.025 432.972 917.46 429.13 928.948 425.453C935.216 432.67 941.35 440.061 947.962 447.098C977.433 478.774 1012.47 505.293 1051.12 524.798C1070.44 534.556 1090.69 542.504 1111.56 548.318C1132.44 554.068 1153.99 557.674 1175.72 558.106C1186.58 558.3 1197.48 557.712 1208.25 556.018C1219.01 554.353 1229.66 551.614 1239.78 547.43C1249.91 543.264 1259.5 537.641 1267.81 530.352C1276.05 523.073 1282.97 513.686 1285.91 502.745C1287.37 497.31 1287.86 491.606 1287.34 486.016C1286.82 480.421 1285.37 474.958 1283.24 469.821C1278.96 459.521 1272.18 450.57 1264.45 442.833C1256.68 435.09 1247.87 428.518 1238.58 422.834C1229.29 417.15 1219.48 412.381 1209.41 408.322C1189.24 400.23 1168.04 395.029 1146.6 391.998C1125.15 388.977 1103.43 388.168 1081.83 389.153C1060.22 390.138 1038.72 392.949 1017.54 397.252C1006.96 399.413 996.421 401.948 986.044 404.814C975.621 407.558 965.256 410.514 954.914 413.546C946.684 415.976 938.489 418.521 930.314 421.133C930.056 420.838 929.802 420.541 929.544 420.246C922.454 412.134 915.289 404.089 908.048 396.114C893.561 380.169 878.817 364.457 863.808 349.006C833.789 318.102 802.82 288.117 770.782 259.301C738.761 230.474 705.68 202.804 671.372 176.71C637.029 150.677 601.456 126.19 564.238 104.378C527.045 82.589 488.149 63.4224 447.332 49.2277C437.126 45.6971 426.788 42.5557 416.369 39.6957C405.918 36.9464 395.376 34.5478 384.742 32.5864C374.092 30.7171 363.361 29.2944 352.581 28.3717C341.826 27.5131 331.048 26.9117 320.258 26.6411C277.138 25.5357 233.673 29.3064 191.81 40.2451C170.905 45.7184 150.43 52.9957 130.956 62.4464C111.522 71.9197 92.9516 83.469 76.7809 98.009C72.7543 101.656 68.8916 105.496 65.2956 109.598C61.7076 113.704 58.3489 118.05 55.6009 122.873C54.2489 125.296 53.0169 127.822 52.2796 130.658C51.9276 132.077 51.6755 133.588 51.8982 135.264C52.0169 136.096 52.2876 136.988 52.8303 137.798C52.9569 138.002 53.1276 138.189 53.2809 138.378L53.7276 138.81C54.0169 139.11 54.3529 139.34 54.6769 139.585C57.3903 141.432 60.4383 141.765 63.2423 141.849C66.081 141.894 68.8422 141.569 71.5542 141.106C82.3702 139.08 92.5089 135.162 102.446 130.958C112.349 126.649 122.012 121.838 131.378 116.517C121.585 120.992 111.685 125.201 101.662 129.025C96.657 130.948 91.6063 132.742 86.5063 134.329C81.4156 135.928 76.2543 137.312 71.0583 138.157C68.4676 138.578 65.8569 138.854 63.3129 138.789C60.7996 138.721 58.2422 138.29 56.4849 137.032C55.5342 136.309 55.1476 135.853 55.0089 134.814C54.8689 133.816 55.0263 132.612 55.329 131.432C55.945 129.05 57.0743 126.686 58.3463 124.424C60.9303 119.889 64.1823 115.669 67.673 111.682C71.1743 107.696 74.9583 103.938 78.909 100.365C94.7876 86.1037 113.14 74.693 132.361 65.3424C151.625 56.009 171.909 48.8131 192.636 43.4024C234.144 32.5864 277.306 28.8624 320.17 29.9917C330.896 30.2691 341.612 30.8744 352.309 31.7357C362.974 32.6557 373.59 34.0717 384.138 35.9291C394.67 37.8797 405.12 40.2637 415.482 42.9984C425.816 45.8424 436.074 48.9664 446.206 52.4797C486.732 66.6037 525.425 85.6957 562.453 107.424C599.505 129.173 634.952 153.606 669.182 179.592C703.38 205.637 736.366 233.266 768.302 262.057C800.25 290.833 831.142 320.784 861.082 351.649C876.053 367.081 890.757 382.772 905.202 398.694C912.31 406.532 919.342 414.44 926.301 422.409C915.292 425.97 904.332 429.685 893.437 433.584C873.664 440.685 854.094 448.249 834.864 456.89C834.332 456.357 833.685 455.922 832.921 455.669C830.3 454.797 827.469 456.216 826.597 458.837C826.454 459.268 826.394 459.701 826.37 460.133C824.297 461.161 817.544 464.514 809.085 468.734M955.973 417.141C966.288 414.134 976.625 411.204 987.018 408.485C997.39 405.64 1007.79 403.146 1018.3 401.014C1039.3 396.772 1060.61 394.013 1082.01 393.062C1103.39 392.112 1124.87 392.94 1146.04 395.948C1167.2 398.964 1188.1 404.122 1207.89 412.093C1217.78 416.088 1227.38 420.774 1236.44 426.333C1245.5 431.889 1254.05 438.293 1261.52 445.761C1268.96 453.218 1275.4 461.788 1279.39 471.416C1281.38 476.216 1282.72 481.268 1283.19 486.394C1283.67 491.518 1283.23 496.704 1281.9 501.66C1279.23 511.626 1272.88 520.35 1265.07 527.262C1257.19 534.186 1247.98 539.609 1238.22 543.633C1228.45 547.678 1218.11 550.352 1207.62 551.981C1197.12 553.641 1186.45 554.225 1175.79 554.044C1154.47 553.636 1133.23 550.104 1112.63 544.445C1092.03 538.722 1072.01 530.884 1052.91 521.249C1014.68 501.989 979.988 475.774 950.806 444.452C944.665 437.926 938.881 431.018 932.965 424.182C940.612 421.764 948.277 419.4 955.973 417.141Z" stroke="#9CD7C6" stroke-width="4"/>
</g>
<mask id="mask3_1_156" style="mask-type:luminance" maskUnits="userSpaceOnUse" x="-1065" y="-530" width="2667" height="2667">
<path d="M1602 -530L-1064.67 -530L-1064.67 2136.67L1602 2136.67L1602 -530Z" fill="white"/>
</mask>
<g mask="url(#mask3_1_156)">
<path d="M657.137 523.735C644.447 527.714 723.677 525.254 770.046 508.469C816.415 491.682 850.335 467.937 845.809 455.433C841.282 442.929 800.022 446.401 753.653 463.187C707.283 479.973 679.175 516.823 657.137 523.735Z" fill="#D4E512"/>
</g>
<mask id="mask4_1_156" style="mask-type:luminance" maskUnits="userSpaceOnUse" x="-1065" y="-531" width="2667" height="2668">
<path d="M1602 -530L-1064.67 -530L-1064.67 2136.67L1602 2136.67L1602 -530Z" fill="white"/>
</mask>
<g mask="url(#mask4_1_156)">
<path d="M842.179 457.543C843.697 459.899 846.837 460.578 849.193 459.061C851.547 457.542 852.227 454.403 850.71 452.047C849.191 449.691 846.051 449.013 843.697 450.53C841.341 452.047 840.662 455.187 842.179 457.543Z" fill="#2A4260"/>
</g>
</g>
</svg>
