<?xml version="1.0" encoding="UTF-8" standalone="no"?>
<!-- Created with Inkscape (http://www.inkscape.org/) -->

<svg
   version="1.1"
   id="svg1"
   width="2666.6667"
   height="2666.6667"
   viewBox="0 0 2666.6667 2666.6667"
   sodipodi:docname="TIDE-001 TIDEWATER LOGO  (1).ai"
   xmlns:inkscape="http://www.inkscape.org/namespaces/inkscape"
   xmlns:sodipodi="http://sodipodi.sourceforge.net/DTD/sodipodi-0.dtd"
   xmlns="http://www.w3.org/2000/svg"
   xmlns:svg="http://www.w3.org/2000/svg">
  <defs
     id="defs1">
    <clipPath
       clipPathUnits="userSpaceOnUse"
       id="clipPath2">
      <path
         d="M 0,2000 H 2000 V 0 H 0 Z"
         transform="translate(-827.83555,-1248.8102)"
         id="path2" />
    </clipPath>
    <clipPath
       clipPathUnits="userSpaceOnUse"
       id="clipPath4">
      <path
         d="M 0,2000 H 2000 V 0 H 0 Z"
         transform="translate(-794.12552,-1149.1538)"
         id="path4" />
    </clipPath>
    <clipPath
       clipPathUnits="userSpaceOnUse"
       id="clipPath6">
      <path
         d="M 0,2000 H 2000 V 0 H 0 Z"
         transform="translate(-1129.1523,-1351.8514)"
         id="path6" />
    </clipPath>
    <clipPath
       clipPathUnits="userSpaceOnUse"
       id="clipPath8">
      <path
         d="M 0,2000 H 2000 V 0 H 0 Z"
         transform="translate(-1024.7145,-1195.8885)"
         id="path8" />
    </clipPath>
    <clipPath
       clipPathUnits="userSpaceOnUse"
       id="clipPath10">
      <path
         d="M 0,2000 H 2000 V 0 H 0 Z"
         transform="translate(-752.77809,-1270.942)"
         id="path10" />
    </clipPath>
    <clipPath
       clipPathUnits="userSpaceOnUse"
       id="clipPath12">
      <path
         d="M 0,2000 H 2000 V 0 H 0 Z"
         transform="translate(-1162.7457,-1269.5441)"
         id="path12" />
    </clipPath>
    <clipPath
       clipPathUnits="userSpaceOnUse"
       id="clipPath14">
      <path
         d="M 0,2000 H 2000 V 0 H 0 Z"
         transform="translate(-1006.3788,-1247.7854)"
         id="path14" />
    </clipPath>
    <clipPath
       clipPathUnits="userSpaceOnUse"
       id="clipPath16">
      <path
         d="M 0,2000 H 2000 V 0 H 0 Z"
         transform="translate(-1025.4105,-1214.1021)"
         id="path16" />
    </clipPath>
    <clipPath
       clipPathUnits="userSpaceOnUse"
       id="clipPath18">
      <path
         d="M 0,2000 H 2000 V 0 H 0 Z"
         transform="translate(-1038.7917,-1225.5372)"
         id="path18" />
    </clipPath>
    <clipPath
       clipPathUnits="userSpaceOnUse"
       id="clipPath20">
      <path
         d="M 0,2000 H 2000 V 0 H 0 Z"
         transform="translate(-1050.8593,-1224.1592)"
         id="path20" />
    </clipPath>
    <clipPath
       clipPathUnits="userSpaceOnUse"
       id="clipPath22">
      <path
         d="M 0,2000 H 2000 V 0 H 0 Z"
         transform="translate(-1126.3281,-1205.4941)"
         id="path22" />
    </clipPath>
    <clipPath
       clipPathUnits="userSpaceOnUse"
       id="clipPath24">
      <path
         d="M 0,2000 H 2000 V 0 H 0 Z"
         transform="translate(-1027.3863,-1191.5952)"
         id="path24" />
    </clipPath>
    <clipPath
       clipPathUnits="userSpaceOnUse"
       id="clipPath26">
      <path
         d="M 0,2000 H 2000 V 0 H 0 Z"
         transform="translate(-1067.0979,-1180.7549)"
         id="path26" />
    </clipPath>
    <clipPath
       clipPathUnits="userSpaceOnUse"
       id="clipPath28">
      <path
         d="M 0,2000 H 2000 V 0 H 0 Z"
         transform="translate(-1098.9856,-1178.1792)"
         id="path28" />
    </clipPath>
    <clipPath
       clipPathUnits="userSpaceOnUse"
       id="clipPath30">
      <path
         d="M 0,2000 H 2000 V 0 H 0 Z"
         transform="translate(-1244.5503,-1145.0216)"
         id="path30" />
    </clipPath>
    <clipPath
       clipPathUnits="userSpaceOnUse"
       id="clipPath32">
      <path
         d="M 0,2000 H 2000 V 0 H 0 Z"
         transform="translate(-1129.1158,-1141.4867)"
         id="path32" />
    </clipPath>
    <clipPath
       clipPathUnits="userSpaceOnUse"
       id="clipPath34">
      <path
         d="M 0,2000 H 2000 V 0 H 0 Z"
         transform="translate(-1107.6981,-1114.7865)"
         id="path34" />
    </clipPath>
    <clipPath
       clipPathUnits="userSpaceOnUse"
       id="clipPath36">
      <path
         d="M 0,2000 H 2000 V 0 H 0 Z"
         transform="translate(-1085.8323,-1076.1356)"
         id="path36" />
    </clipPath>
    <clipPath
       clipPathUnits="userSpaceOnUse"
       id="clipPath38">
      <path
         d="M 0,2000 H 2000 V 0 H 0 Z"
         transform="translate(-1103.3745,-1079.8362)"
         id="path38" />
    </clipPath>
    <clipPath
       clipPathUnits="userSpaceOnUse"
       id="clipPath40">
      <path
         d="M 0,2000 H 2000 V 0 H 0 Z"
         transform="translate(-1111.9174,-1078.3646)"
         id="path40" />
    </clipPath>
    <clipPath
       clipPathUnits="userSpaceOnUse"
       id="clipPath42">
      <path
         d="M 0,2000 H 2000 V 0 H 0 Z"
         transform="translate(-1122.3241,-1073.8269)"
         id="path42" />
    </clipPath>
    <clipPath
       clipPathUnits="userSpaceOnUse"
       id="clipPath44">
      <path
         d="M 0,2000 H 2000 V 0 H 0 Z"
         transform="translate(-1131.2121,-1071.932)"
         id="path44" />
    </clipPath>
    <clipPath
       clipPathUnits="userSpaceOnUse"
       id="clipPath46">
      <path
         d="M 0,2000 H 2000 V 0 H 0 Z"
         transform="translate(-1140.4879,-1070.6765)"
         id="path46" />
    </clipPath>
    <clipPath
       clipPathUnits="userSpaceOnUse"
       id="clipPath48">
      <path
         d="M 0,2000 H 2000 V 0 H 0 Z"
         transform="translate(-1151.4493,-1067.4668)"
         id="path48" />
    </clipPath>
    <clipPath
       clipPathUnits="userSpaceOnUse"
       id="clipPath50">
      <path
         d="M 0,2000 H 2000 V 0 H 0 Z"
         transform="translate(-1164.3729,-1069.9208)"
         id="path50" />
    </clipPath>
    <clipPath
       clipPathUnits="userSpaceOnUse"
       id="clipPath52">
      <path
         d="M 0,2000 H 2000 V 0 H 0 Z"
         transform="translate(-1171.5771,-1063.3676)"
         id="path52" />
    </clipPath>
    <clipPath
       clipPathUnits="userSpaceOnUse"
       id="clipPath54">
      <path
         d="M 0,2000 H 2000 V 0 H 0 Z"
         transform="translate(-1177.8499,-1059.6575)"
         id="path54" />
    </clipPath>
    <clipPath
       clipPathUnits="userSpaceOnUse"
       id="clipPath56">
      <path
         d="M 0,2000 H 2000 V 0 H 0 Z"
         transform="translate(-1185.6948,-1056.0144)"
         id="path56" />
    </clipPath>
    <clipPath
       clipPathUnits="userSpaceOnUse"
       id="clipPath58">
      <path
         d="M 0,2000 H 2000 V 0 H 0 Z"
         transform="translate(-1198.0612,-1049.7065)"
         id="path58" />
    </clipPath>
    <clipPath
       clipPathUnits="userSpaceOnUse"
       id="clipPath60">
      <path
         d="M 0,2000 H 2000 V 0 H 0 Z"
         transform="translate(-1203.9417,-1045.359)"
         id="path60" />
    </clipPath>
    <clipPath
       clipPathUnits="userSpaceOnUse"
       id="clipPath62">
      <path
         d="M 0,2000 H 2000 V 0 H 0 Z"
         transform="translate(-1215.9348,-1035.783)"
         id="path62" />
    </clipPath>
    <clipPath
       clipPathUnits="userSpaceOnUse"
       id="clipPath64">
      <path
         d="M 0,2000 H 2000 V 0 H 0 Z"
         transform="translate(-1260.2025,-1101.1343)"
         id="path64" />
    </clipPath>
    <clipPath
       clipPathUnits="userSpaceOnUse"
       id="clipPath66">
      <path
         d="M 0,2000 H 2000 V 0 H 0 Z"
         transform="translate(-1294.4302,-1043.3501)"
         id="path66" />
    </clipPath>
    <clipPath
       clipPathUnits="userSpaceOnUse"
       id="clipPath68">
      <path
         d="M 0,2000 H 2000 V 0 H 0 Z"
         transform="translate(-484.52031,-1289.6442)"
         id="path68" />
    </clipPath>
    <clipPath
       clipPathUnits="userSpaceOnUse"
       id="clipPath70">
      <path
         d="M 0,2000 H 2000 V 0 H 0 Z"
         transform="translate(-484.52031,-1289.6442)"
         id="path70" />
    </clipPath>
    <clipPath
       clipPathUnits="userSpaceOnUse"
       id="clipPath72">
      <path
         d="M 0,2000 H 2000 V 0 H 0 Z"
         transform="translate(-593.54861,-1243.5524)"
         id="path72" />
    </clipPath>
    <clipPath
       clipPathUnits="userSpaceOnUse"
       id="clipPath74">
      <path
         d="M 0,2000 H 2000 V 0 H 0 Z"
         transform="translate(-708.64742,-1209.6986)"
         id="path74" />
    </clipPath>
    <clipPath
       clipPathUnits="userSpaceOnUse"
       id="clipPath76">
      <path
         d="M 0,2000 H 2000 V 0 H 0 Z"
         transform="translate(-569.86541,-1259.3424)"
         id="path76" />
    </clipPath>
  </defs>
  <sodipodi:namedview
     id="namedview1"
     pagecolor="#ffffff"
     bordercolor="#000000"
     borderopacity="0.25"
     inkscape:showpageshadow="2"
     inkscape:pageopacity="0.0"
     inkscape:pagecheckerboard="0"
     inkscape:deskcolor="#d1d1d1">
    <inkscape:page
       x="0"
       y="0"
       inkscape:label="1"
       id="page1"
       width="2666.6667"
       height="2666.6667"
       margin="0"
       bleed="0" />
  </sodipodi:namedview>
  <g
     id="layer-MC0"
     inkscape:groupmode="layer"
     inkscape:label="Layer 1">
    <path
       id="path1"
       d="m 0,0 c 2.156,-3.067 2.297,-7.003 0.08,-9.665 -2.731,-3.279 -8.001,-3.387 -11.772,-0.246 -3.771,3.141 -4.617,8.344 -1.886,11.622 2.018,2.422 5.425,3.114 8.588,2.04 -1.111,-1.431 -0.982,-3.419 0.312,-4.498 1.324,-1.102 3.368,-0.832 4.565,0.605 C -0.075,-0.096 -0.036,-0.047 0,0"
       style="fill:#2f477d;fill-opacity:1;fill-rule:evenodd;stroke:none"
       transform="matrix(1.3333333,0,0,-1.3333333,1103.7807,1001.5865)"
       clip-path="url(#clipPath2)" />
    <path
       id="path3"
       d="m 0,0 c 0,0 17.531,-20.937 46.492,-25.511 28.962,-4.571 44.727,7.081 44.727,7.081 0,0 -9.265,-2.195 -19.614,-2.388 -10.35,-0.191 -17.339,2.327 -17.339,2.327 0,0 10.728,-0.676 21.564,4.067 10.835,4.744 18.582,12.06 18.582,12.06 0,0 -16.361,-11.707 -44.264,-10.494 C 22.243,-11.644 0,0 0,0"
       style="fill:#2f477d;fill-opacity:1;fill-rule:evenodd;stroke:none"
       transform="matrix(1.3333333,0,0,-1.3333333,1058.834,1134.4617)"
       clip-path="url(#clipPath4)" />
    <path
       id="path5"
       d="M 0,0 C 0,0 -4.045,-8.775 -6.535,-15.055 -9.026,-21.336 -9.55,-29.647 -9.55,-29.647 l -5.151,1.027 c 0,0 2.67,8.221 6.42,15.542 C -4.534,-5.756 -0.128,-0.154 0,0"
       style="fill:#ffffff;fill-opacity:1;fill-rule:evenodd;stroke:none"
       transform="matrix(1.3333333,0,0,-1.3333333,1505.5363,864.19813)"
       clip-path="url(#clipPath6)" />
    <path
       id="path7"
       d="m 0,0 c 0,0 -2.1,-5.825 -7.677,-22.108 -5.577,-16.284 -7.39,-21.932 -7.39,-21.932 0,0 49.638,19.096 79.628,24.682 29.989,5.589 45.539,4.752 47.032,-13.289 1.495,-18.044 -14.675,-40.1 -32.281,-57.929 -17.602,-17.832 -36.919,-25.148 -51.061,-21.63 -14.142,3.519 -24.058,11.779 -36.604,22.505 -12.546,10.725 -25.387,11.508 -29.693,9.312 -4.309,-2.194 -25.38,-29.805 -25.46,-32.217 -0.08,-2.41 20.049,-5.684 45.326,-11.041 25.278,-5.361 112.272,-21.922 152.913,-37.6 40.637,-15.675 57.978,-29.567 60.881,-36.668 2.9,-7.095 2.574,-8.477 -3.416,-3.765 -5.984,4.711 -47.034,26.513 -79.002,36.067 -31.971,9.558 -47.44,14.457 -74.534,21.603 -27.093,7.148 -80.409,10.251 -80.409,10.251 0,0 21.568,-20.719 56.63,-46.069 35.06,-25.349 51.644,-32.554 51.644,-32.554 0,0 -27.991,16.981 -47.283,32.502 -19.291,15.517 -31.512,27.625 -31.512,27.625 0,0 21.596,-19.367 41.319,-29.737 19.727,-10.373 35.035,-13.485 35.035,-13.485 0,0 -26.986,12.563 -44.49,24.941 -17.505,12.377 -22.22,16.304 -22.22,16.304 0,0 20.807,-12.374 40.343,-19.008 19.535,-6.633 32.865,-2.868 21.482,1.658 -11.378,4.521 -38.577,14.51 -56,19.384 -17.421,4.874 -26.769,8.528 -26.769,8.528 0,0 54.294,-13.83 69.14,-16.834 14.85,-3.007 24.95,-0.131 9.185,4.739 -15.77,4.875 -29.341,7.094 -29.341,7.094 0,0 23.256,-1.336 34.514,-4.519 11.258,-3.179 19.127,-7.944 18.182,-17.347 -0.944,-9.402 -2.5,-18.707 -0.844,-26.97 1.654,-8.264 -2.249,-9.969 1.819,-18.314 4.064,-8.342 10.079,-15.005 10.079,-15.005 0,0 -45.843,21.662 -69.361,37.398 -23.519,15.737 -31.675,21.152 -31.675,21.152 0,0 7.67,-13.272 5.394,-14.682 -2.274,-1.409 -10.429,-7.561 -9.884,-15.176 0.542,-7.61 2.495,-12.542 2.495,-12.542 0,0 -10.348,3.114 -15.359,-2.901 -5.011,-6.016 -5.254,-19.858 -5.254,-19.858 0,0 -11.137,15.06 -23.931,43.34 -12.793,28.281 -20.169,63.893 -20.169,63.893 0,0 6.365,0.204 6.935,-2.749 0.571,-2.953 11.413,-41.178 17.08,-57.187 5.664,-16.007 13.116,-26.899 13.116,-26.899 0,0 -10.95,26.196 -14.339,41.962 -3.39,15.766 -4.829,31.56 -4.829,31.56 0,0 7.455,-24.11 13.338,-40.851 5.882,-16.741 12.195,-25.03 12.195,-25.03 0,0 -6.451,23 -11.738,38.144 -5.285,15.141 -6.126,21.074 -6.126,21.074 0,0 9.946,-21.78 16.018,-35.648 6.071,-13.87 14.391,-22.727 14.391,-22.727 0,0 -11.196,23.919 -18.052,39.821 -6.858,15.901 -7.916,20.913 -7.916,20.913 0,0 10.842,-16.742 17.019,-25.192 6.179,-8.451 12.304,-14.654 12.304,-14.654 0,0 -11.221,19.258 -18.322,31.233 -7.099,11.971 -10.244,21.751 -14.932,25.379 -4.687,3.63 -24.085,5.469 -30.289,6.781 -6.205,1.312 -15.172,3.275 -15.172,3.275 0,0 20.072,9.717 39.789,30.744 19.718,21.027 24.159,28.342 24.159,28.342 0,0 13.631,-12.73 30.51,-24.863 16.88,-12.132 29.71,-16.898 38.04,-17.642 8.331,-0.742 15.279,1.317 15.279,1.317 0,0 -14.426,-0.789 -30.004,6.956 -15.579,7.744 -31.376,21.179 -31.376,21.179 0,0 20.456,-9.329 43.376,-15.203 22.92,-5.873 34.271,-5.14 34.271,-5.14 0,0 -30.316,6.251 -51.909,15.701 -21.594,9.45 -32.946,13.674 -32.946,13.674 0,0 36.277,-9.014 55.322,-11.935 19.047,-2.921 41.559,0.632 41.559,0.632 0,0 -40.34,4.137 -58.086,7.627 -17.745,3.491 -25.413,5.197 -25.413,5.197 0,0 35.706,2.203 57.514,1.936 21.809,-0.266 41.585,-1.32 41.585,-1.32 0,0 -24.274,5.903 -44.431,6.169 -20.156,0.266 -62.985,-2.886 -62.985,-2.886 0,0 44.183,9.735 66.235,11.745 22.051,2.01 42.994,-0.289 42.994,-0.289 0,0 -29.395,9.341 -52.423,4.837 -23.027,-4.501 -58.894,-11.525 -58.894,-11.525 0,0 42.366,16.481 72.87,21.365 30.503,4.881 42.83,4.803 42.83,4.803 0,0 -33.717,0.686 -53.424,-3.14 -19.708,-3.824 -53.392,-16.66 -61.019,-17.879 -7.625,-1.222 -11.309,-0.356 -11.648,0.892 -0.338,1.244 9.478,17.161 14.717,29.733 C -6.167,-7.398 0.266,0.326 0,0"
       style="fill:#2f477d;fill-opacity:1;fill-rule:evenodd;stroke:none"
       transform="matrix(1.3333333,0,0,-1.3333333,1366.2859,1072.1487)"
       clip-path="url(#clipPath8)" />
    <path
       id="path9"
       d="m 0,0 c 0,0 91.837,14.377 124.184,12.217 32.347,-2.16 45.896,-15.649 45.896,-15.649 0,0 -17.016,8.665 -61.229,9.144 C 64.639,6.19 -0.378,0.866 0,0 m 108.794,19.528 c 0,0 58.569,6.84 84.415,0.181 25.847,-6.659 48.554,-34.936 48.554,-34.936 0,0 -16.718,20.26 -61.908,28.162 -45.189,7.899 -70.79,6.918 -71.061,6.593 m 25.249,9.81 c 0,0 159.508,16.94 232.113,11.538 72.605,-5.402 143.319,-32.911 189.382,-63.569 46.059,-30.656 81.835,-86.892 81.835,-86.892 0,0 -45.961,59.213 -99.175,89.219 C 484.985,9.638 423.862,37.421 321.945,34.744 220.028,32.067 133.122,29.556 134.043,29.338 m 305.081,110.556 c 0,0 -22.322,-31.28 -31.605,-52.351 -9.284,-21.069 -16.534,-40.5 -16.534,-40.5 l -8.711,0.589 c 0,0 19.459,41.131 32.021,60.537 12.565,19.404 24.906,31.66 24.829,31.725 m 32.37,-5.346 c 0,0 -22.559,-28.355 -36.259,-50.844 -13.701,-22.49 -21.241,-40.445 -21.241,-40.445 l -8.665,0.728 c 0,0 19.3,34.777 36.467,57.293 17.166,22.516 29.801,33.711 29.698,33.268 m 26.141,-17.094 c 0,0 -23.795,-27.618 -37.767,-46.29 -13.971,-18.669 -22.64,-33.982 -22.64,-33.982 l -8.168,1.268 c 0,0 23.458,35.28 40.645,54.172 17.185,18.894 27.723,24.742 27.93,24.832 m 27.034,-14.393 c 0,0 -16.736,-14.64 -33.241,-35.447 C 474.922,46.806 465.431,30.289 465.431,30.289 l -8.535,1.654 c 0,0 20.589,30.007 37.581,46.771 16.993,16.764 30.031,24.481 30.192,24.347 m 16.83,-22.28 c 0,0 -21.328,-20.812 -30.875,-32.274 -9.549,-11.464 -19.66,-26.575 -19.66,-26.575 l -8.236,1.847 c 0,0 23.377,29.39 36.784,40.854 13.403,11.466 21.887,16.359 21.987,16.148 m 8.313,-27.714 c 0,0 -12.621,-10.349 -21.839,-21.752 -9.222,-11.399 -15.007,-20.828 -15.007,-20.828 l -7.574,3.64 c 0,0 16.415,18.38 27.308,27.496 10.898,9.112 17.111,11.443 17.112,11.444 m -0.621,-32.803 c 0.083,-0.068 -4.408,-3.974 -7.883,-8.146 C 537.834,7.947 534.277,0.37 534.277,0.37 l -5.206,2.018 c 0,0 3.89,5.332 8.726,9.644 4.831,4.316 11.394,8.232 11.394,8.232 m 39.769,-48.129 c 0,0 24.971,22.709 46.614,34.146 21.644,11.436 34,9.405 34,9.405 0,0 -38.44,-13.418 -54.365,-28.24 -15.928,-14.823 -19.829,-19.834 -19.829,-19.834 l 6.858,-5.987 c 0,0 20.83,12.114 39.113,20.842 18.287,8.725 33.078,7.972 33.078,7.972 0,0 -22.158,-7.429 -39.116,-17.537 C 618.356,-37.206 609.798,-45.5 609.798,-45.5 l 4.389,-5.307 c 0,0 28.525,11.764 44.18,16.347 15.66,4.58 20.537,5.475 20.537,5.475 0,0 -28.443,-11.005 -40.229,-16.885 -11.781,-5.883 -19.341,-10.326 -19.341,-10.326 l 5.502,-5.96 c 0,0 24.166,6.859 38.301,11.606 14.144,4.741 24.301,5.368 24.301,5.368 0,0 -19.257,-7.917 -33.642,-13.283 -14.385,-5.367 -23.649,-10.041 -23.649,-10.041 l 4.175,-5.406 c 0,0 19.121,3.623 31.963,4.493 12.841,0.869 21.108,-0.783 21.108,-0.783 0,0 -16.352,-1.112 -26.918,-3.053 -10.564,-1.938 -23.582,-5.83 -23.582,-5.83 l 4.988,-10.212 c 0,0 12.285,2.021 22.268,3.757 9.983,1.736 19.802,0.303 19.802,0.303 0,0 -22.876,-6.142 -30.217,-8.013 -7.341,-1.871 -8.13,-2.315 -8.13,-2.315 l 3.295,-6.462 c 0,0 12.325,1.576 19.763,1.575 7.437,0.003 15.403,-0.85 15.403,-0.85 0,0 -15.74,-1.209 -23.043,-2.699 -7.3,-1.494 -10.28,-1.765 -10.28,-1.765 l 3.807,-9.642 c 0,0 8.277,0.678 15.593,1.193 7.312,0.519 11.215,-1.905 11.215,-1.905 0,0 -7.882,-0.044 -15.818,-1.144 -7.941,-1.098 -9.702,-1.558 -9.702,-1.558 l 0.762,-5.867 c 0,0 8.505,-0.199 11.935,-0.716 3.426,-0.511 8.668,-2.814 8.668,-2.814 0,0 -9.904,0.677 -15.862,-0.693 -5.959,-1.37 -4.741,-2.385 -4.766,-5.394 -0.028,-3.006 -0.391,-4.768 -0.391,-4.768 0,0 0.783,9.537 -11.034,34.526 -11.818,24.989 -26.602,45.426 -40.936,59.294 -14.335,13.867 -23.872,21.262 -23.872,21.262 0,0 8.633,-4.024 8.619,-3.873 m 26.898,-344.645 c -3.575,-6.289 -4.052,1.27 -7.887,-8.19 -4.182,-10.333 -11.125,-1.237 -16.213,-7.298 -5.867,-6.987 -9.42,0.65 -12.446,-3.59 -4.678,-6.566 -7.919,-0.911 -11.826,-5.602 -2.895,-3.475 -9.784,-0.658 -8.422,-3.559 1.517,-3.237 -4.741,2.951 -10.138,-4.176 -0.353,-0.471 -30.342,-5.661 -18.911,-8.482 3.458,-0.85 1.787,3.822 8.103,-1.193 2.226,-1.769 16.079,8.559 22.804,8.26 5.101,-0.227 2.004,4.035 12.726,5.795 4.651,0.766 1.763,6.279 17.993,5.752 5.293,-0.173 16.435,7.532 19.377,13.555 1.675,3.433 9.02,4.631 4.84,8.728 m -94.926,-11.804 c 0.583,-4.635 2.232,-0.33 2.875,-11.757 0.486,-8.62 6.591,9.182 14.742,0.939 4.536,-4.589 19.814,13.824 26.472,6.999 12.581,5.988 12.436,11.214 19.683,6.326 3.872,-2.614 7.78,10.842 12.144,7.964 0.842,-0.555 20.27,9.908 20.537,10.164 3.498,3.346 18.183,5.053 17.944,14.607 -0.104,3.91 5.811,2.672 3.69,10.647 -0.969,3.637 1.889,-0.888 7.259,4.92 7.89,8.529 14.245,3.72 11.068,13.552 -0.945,2.921 14.045,12.419 12.152,15.307 -2.299,3.502 1.692,0.337 -0.775,6.514 -3.673,-4.41 -5.22,-1.561 -5.416,-8.108 -6.586,0.162 -4.534,-3.262 -12.195,-9.67 -2.421,-2.028 3.523,-5.686 -8.072,-10.035 -5.561,-2.083 -6.18,-12.405 -12.629,-13.666 -2.513,-0.494 -1.721,-6.581 -9.075,-6.51 -16.807,0.161 -1.714,0.243 -15.405,-10.315 -6.876,-5.307 -3.006,-5.902 -15.392,-10.17 -3.05,-1.049 4.83,-2.693 -8.174,-2.695 -1.641,-2.57 -13.728,-7.175 -14.748,-7.008 -14.221,2.324 -1.631,-0.002 -12.604,-1.097 -5.907,-0.588 2.476,-8.617 -22.025,1.728 -2.319,0.978 3.274,-3.149 -1.707,-2.337 -4.019,0.655 -3.133,-8.307 -10.349,-6.299 m 112.784,75.686 c 12.533,0.499 9.244,13.008 16.89,14.934 2.433,0.612 0.361,6.145 7.96,9.892 0.845,0.414 7.346,12.5 9.387,14.95 4.852,5.825 -1.901,8.687 3.636,9.543 1.598,3.133 -2.713,4.108 2.038,8.454 l 0.606,-1.199 c 6.81,-2.423 -0.769,-7.505 -0.193,-10.807 0.848,-4.87 -4.923,-3.53 -3.482,-8.806 0.546,-1.997 -6.415,-6.6 -5.873,-15.534 0.206,-3.357 -18.99,-18.845 -17.062,-22.641 2.653,-5.22 -10.14,3.005 -9.293,-2.992 0.711,-5.034 -4.939,-3.916 -7.231,-11.837 -2.265,-7.832 -18.31,-19.737 -25.632,-19.908 -3.239,-0.076 -11.032,-3.354 -9.574,-8.138 -3.324,-1.578 -2.888,6.08 -11.494,-5.202 -1.844,-2.414 -0.61,4.867 -9.884,-3.758 -5.078,-4.723 -6.136,5.752 -11.529,-3.599 -0.808,-0.131 -2.368,1.781 -9.287,1.033 -1.318,-0.145 -6.457,0.062 -7.529,0.763 -3.992,-3.515 -11.103,-11.98 -15.407,-2.855 -0.035,0.07 3.444,17.627 7.38,16.513 16.972,-4.804 12.94,-0.314 22.856,-1.367 4.261,-0.454 -0.67,-2.747 7.706,4.186 0.326,0.272 10.089,0.728 22.683,10.264 8.142,-2.001 2.272,4.229 12.804,6.439 7.167,1.503 15.616,14.067 19.671,13.263 3.351,-0.666 6.164,9.35 9.853,8.409 m 39.453,86.375 c 9.572,-12.555 -7.983,-14.977 -3.728,-24.801 0.426,-0.982 -7.852,-10.353 -7.013,-14.537 0.015,-0.062 -8.988,-10.136 -10.119,-11.493 -5.269,-6.327 4.808,1.003 -7.356,-10.756 -10.498,-10.152 -0.393,-7.224 -11.775,-15.024 -7.137,-4.893 3.024,-6.715 -6.769,-3.268 -3.602,1.266 1.435,-8.497 -5.659,-4.318 -3.148,1.853 -2.027,-10.383 -13.869,-9.156 -3.07,0.316 1.9,-3.935 -1.504,-3.013 -3.297,0.891 -2.491,-7.585 -9.538,-3.023 -2.02,1.307 -3.771,-9.743 -9.093,-4.59 -2.063,1.998 0.264,-9.828 -10.779,-2.131 -5.467,-3.256 2.128,-7.814 -8.064,-3.242 -2.828,1.269 -6.045,-9.279 -12.21,-3.363 -3.965,3.803 -14.686,-9.003 -11.883,2.551 1.14,4.684 -10.254,1.007 0.657,11.805 0.534,0.521 2.056,9.577 7.379,0.918 2.183,-3.554 7.315,6.984 13.209,0.879 11.665,2.98 3.17,5.858 12.474,3.016 4.365,-1.334 6.281,3.578 13.014,1.229 6.387,-2.231 14.273,12.755 20.218,13.088 10.398,0.58 19.905,23.553 24.841,23.495 10.412,-0.129 -7.89,9.63 9.314,12.996 0.57,2.121 6.817,9.62 7.926,9.418 6.484,-1.17 -5.419,8.865 5.453,9.95 1.298,0.129 11.456,12.371 10.702,13.902 -3.437,6.986 4,0.745 2.068,8.379 -0.466,1.845 2.076,1.126 2.104,1.089 M -60.314,-8.604 c 0,0 15.366,-26.844 22.819,-49.301 7.456,-22.457 5.669,-30.884 -4.815,-34.542 -10.482,-3.659 -32.479,-4.613 -45.428,-5.944 -12.95,-1.328 -9.967,-17.584 1.522,-26.601 11.49,-9.019 66.378,-27.755 101.761,-38.503 35.385,-10.747 44.379,-13.835 58.44,-16.458 14.06,-2.625 35.681,-12.374 52.262,-16.27 16.58,-3.9 32.755,-4.978 32.755,-4.978 0,0 -25.955,6.197 -38.417,11.072 -12.465,4.872 -16.879,7.175 -16.879,7.175 0,0 32.157,-5.032 48.006,-5.841 15.849,-0.809 26.82,5.748 26.82,5.748 0,0 -13.385,-1.519 -25.764,-0.844 -12.381,0.674 -20.808,2.459 -20.808,2.459 0,0 19.967,1.821 37.629,7.486 17.661,5.667 26.438,11.574 26.438,11.574 0,0 -51.146,-14.125 -67.752,-14.886 -16.607,-0.763 -40.282,0.233 -67.377,9.031 -27.093,8.799 -45.107,11.963 -63.015,18.895 -17.911,6.931 -27.365,8.474 -27.365,8.474 0,0 64.316,-5.107 91.084,-15.287 26.767,-10.181 51.151,-17.274 73.635,-10.116 22.484,7.156 37.626,20.705 37.626,20.705 0,0 -0.974,-5.798 -4.684,-11.244 -3.711,-5.446 -6.337,-7.94 -6.337,-7.94 0,0 13.87,1.115 30.313,8.622 16.441,7.509 21.698,12.495 21.698,12.495 0,0 -15.713,-7.292 -27.145,-10.436 -11.431,-3.147 -14.52,-3.877 -14.52,-3.877 0,0 5.714,8.182 6.067,9.266 0.352,1.084 20.319,-2.054 38.954,16.019 18.635,18.074 25.297,30.699 25.297,30.699 0,0 -23.889,-29.669 -40.467,-35.687 -16.579,-6.018 -22.133,-4.421 -22.133,-4.421 0,0 0.216,9.184 5.496,13.873 5.283,4.687 23.081,12.168 36.839,29.346 13.759,17.179 23.238,28.56 23.238,28.56 0,0 -30.228,-27.695 -45.125,-38.967 -14.898,-11.274 -19.666,-8.403 -23.407,-0.329 -3.741,8.071 -6.076,37.004 -3.48,57.972 2.596,20.97 -1.958,34.677 -1.958,34.677 0,0 -6.198,-30.912 -16.053,-61.257 -9.855,-30.344 -18.9,-43.187 -18.9,-43.187 0,0 16.033,21.892 23.884,44.542 7.852,22.65 8.012,30.778 8.012,30.778 0,0 -0.183,-21.049 -1.184,-39.769 -0.996,-18.722 6.862,-30.775 8.083,-37.574 1.221,-6.8 -5.278,-16.257 -15.437,-23.492 -10.158,-7.235 -34.454,-19.216 -58.62,-14.507 -24.167,4.708 -38.797,13.591 -65.401,18.68 -26.607,5.087 -51.041,6.163 -72.932,8.976 -21.889,2.814 -36.086,8.582 -38.417,11.072 -2.33,2.493 14.602,2.985 33.971,1.445 19.372,-1.54 31.426,-0.292 40.341,-4.137 8.914,-3.845 18.531,-7.175 33.727,2.473 15.196,9.646 16.845,26.173 5.029,38.767 -11.812,12.596 -20.485,23.674 -29.237,33.994 -8.754,10.321 -14.769,18.635 -14.769,18.635 0,0 22.114,-34.942 30.515,-52.956 8.404,-18.013 4.259,-26.955 4.259,-26.955 0,0 4.685,7.939 4.115,15.85 -0.57,7.911 -3.117,11.134 -3.117,11.134 0,0 10.595,-9.101 9.649,-18.501 -0.948,-9.401 -8.936,-17.341 -18.58,-20.323 -9.646,-2.982 -9.321,0.051 -28.421,5.22 -19.1,5.171 -56.731,7.602 -56.731,7.602 0,0 32.808,5.994 45.133,5.915 12.329,-0.077 14.737,-1.811 15.985,-3.952 1.248,-2.141 4.202,-6.527 4.202,-6.527 0,0 -0.031,13.517 -5.452,28.499 -5.421,14.98 -21.765,49.245 -26.182,54.854 -4.417,5.606 3.684,5.743 12.246,-4.143 8.562,-9.889 12.303,-17.959 18.565,-35.569 6.262,-17.606 8.649,-30.61 8.649,-30.61 0,0 -5.67,39.146 -13.856,54.776 -8.184,15.629 -20.298,26.544 -20.298,26.544 0,0 2.845,8.373 23.653,-5.656 20.809,-14.029 29.264,-24.376 50.288,-34.178 21.026,-9.802 29.967,-15.599 29.21,-23.779 -0.757,-8.182 -6.01,-16.473 -6.01,-16.473 0,0 15.06,9.485 10.127,20.754 -4.933,11.268 -16.205,16.251 -36.796,27.895 -20.591,11.645 -40.155,31.796 -40.155,31.796 0,0 11.755,6.179 23.785,-3.841 12.032,-10.022 14.824,-15.927 27.422,-20.639 12.598,-4.711 25.302,-2.351 25.302,-2.351 0,0 -17.935,5.578 -25.982,13.107 -8.048,7.53 -4.014,20.966 9.206,24.276 13.219,3.307 26.876,-8.068 26.391,-19.23 -0.485,-11.161 -4.007,-15.388 -4.007,-15.388 0,0 11.434,-0.16 19.314,10.623 7.882,10.784 2.189,25.439 2.189,25.439 0,0 20.293,-5.062 41.585,-2.971 21.294,2.091 48.386,1.555 68.704,-3.804 20.321,-5.361 28.774,-9.099 34.819,-24.321 6.044,-15.224 2.96,-27.525 2.96,-27.525 0,0 10.075,9.783 1.726,35.462 -8.351,25.681 -39.889,48.648 -39.889,48.648 0,0 109.661,16.605 205.46,-5.915 95.798,-22.518 149.664,-62.98 183.756,-100.74 34.088,-37.757 49.483,-68.205 47.972,-97.788 -1.512,-29.583 -21.338,-56.029 -46.205,-73.317 -24.863,-17.291 -45.885,-17.404 -45.885,-17.404 0,0 -22.768,42.095 -43.745,84.352 -20.977,42.257 -26.561,50.765 -33.659,52.821 -7.097,2.057 -6.819,-20.754 -11.744,-49.146 -4.925,-28.393 3.376,-93.137 -1.712,-116.437 -5.087,-23.299 2.716,-33.105 8.249,-50.931 5.529,-17.824 4.77,-16.091 2.552,-34.62 -2.216,-18.533 -7.033,-41.507 -7.033,-41.507 l -2.072,52.395 c 0,0 -29.304,-44.432 -42.786,-74.509 -13.485,-30.074 -20.952,-83.336 -11.353,-112.809 9.594,-29.473 13.986,-34.785 13.986,-34.785 0,0 -0.823,45.298 11.629,83.391 12.454,38.094 31.956,68.113 56.494,82.37 24.543,14.254 50.226,15.991 66.964,23.529 16.743,7.534 23.732,9.973 23.732,9.973 0,0 -8.562,-8.29 -10.507,-23.191 -1.95,-14.899 -3.949,-25.902 2.551,-18.099 6.5,7.804 29.787,48.99 48.095,68.988 18.313,19.995 48.373,62.698 54.709,88.814 6.331,26.118 10.337,58.032 2.58,87.074 -7.752,29.038 -15.775,44.532 -15.775,44.532 0,0 8.824,38.362 13.208,52.884 4.385,14.523 1.402,27.471 4.436,43.671 3.028,16.202 3.189,17.721 -3.206,28.554 -6.393,10.835 -6.666,17.121 -2.717,29.802 3.954,12.68 -0.651,17.065 2.596,27.579 3.252,10.51 8.447,19.399 8.447,19.399 0,0 -46.86,-16.593 -77.633,-35.02 -30.773,-18.426 -44.639,-31.11 -44.639,-31.11 0,0 -6.34,5.283 -12.737,9.508 -6.395,4.225 -11.107,4.847 -11.107,4.847 l 6.31,6.585 c 0,0 -5.336,4.169 -4.961,8.263 0.383,4.087 3.225,9.153 3.225,9.153 0,0 -4.445,2.603 -6.343,15.2 -1.898,12.596 5.926,23.979 5.926,23.979 0,0 -6.715,-0.465 -9.616,9.936 -2.903,10.403 0.537,18.83 0.537,18.83 0,0 -7.72,-2.656 -13.439,7.338 -5.717,9.996 -3.228,15.631 -3.228,15.631 0,0 -5.038,-4.064 -13.953,3.086 -8.913,7.15 -12.031,19.936 -12.031,19.936 0,0 -4.656,-16.499 -14.437,-9.729 -9.783,6.771 -13.929,22.619 -13.929,22.619 0,0 -8.074,-7.045 -12.839,-12.438 -4.768,-5.392 -7.774,-10.323 -7.774,-10.323 0,0 -5.04,2.545 -8.942,10.752 -3.903,8.209 -2.496,15.848 -2.496,15.848 0,0 -14.545,-13.494 -31.119,-39.342 C 395.347,83.843 389.282,71.271 389.282,71.271 l -8.783,20.533 c 0,0 -9.208,-12.707 -15.139,-23.464 -5.931,-10.756 -6.716,-15.334 -6.716,-15.334 0,0 -77.564,3.749 -154.228,-5.642 C 127.75,37.973 84.84,30.76 24.321,15.628 -36.198,0.499 -53.805,-4.111 -56.732,-4.977 c -2.924,-0.868 -3.303,-3.308 -3.582,-3.627"
       style="fill:#2f477d;fill-opacity:1;fill-rule:evenodd;stroke:none"
       transform="matrix(1.3333333,0,0,-1.3333333,1003.7041,972.07733)"
       clip-path="url(#clipPath10)" />
    <path
       id="path11"
       d="m 0,0 c -2.08,-11.988 -12.299,5.139 -15.198,2.195 -3.926,-3.989 -10.854,3.983 -12.736,1.844 -8.647,-9.822 -6.455,4.319 -18.722,-3.131 -11.688,7.449 -0.316,2.14 -10.542,2.44 -7.628,0.22 1.924,9.068 -10.106,-0.065 -3.079,1.645 1.864,-3.729 -7.146,3.153 -2.773,2.117 -0.956,-3.686 -9.194,-1.894 -4.305,0.936 -1.572,2.43 -5.918,5.024 -11.694,-4.466 -0.167,-10.618 -13.227,-2.656 -2.949,1.797 -6.246,-5.705 -11.97,-0.542 -3.532,3.186 -0.693,-7.882 -14.332,-1.279 -4.427,2.143 -1.62,-9.558 -13.602,-1.842 -4.897,3.154 -1.105,-8.174 -10.755,-2.105 -8.08,5.083 0.195,-4.942 -6.799,-2.722 -5.001,1.586 -7.305,0.629 -8.594,-1.092 -2.709,3.079 -5.465,5.922 -8.082,8.461 7.735,9.26 2.406,0.441 5.871,3.384 4.381,3.721 -0.703,8.127 8.022,0.43 3.744,-3.302 10.077,10.222 10.931,-0.129 0.183,-2.191 5.271,-1.876 7.141,3.227 2.267,6.185 8.433,-8.534 10.844,0.425 0.705,2.624 0.976,-5.022 5.766,0.728 4.872,5.849 4.668,-4 8.714,-3.451 7.379,0.999 5.821,6.981 9.585,3.628 0.844,-0.751 -0.164,-0.889 2.442,-3.709 4.285,1.812 8.077,12.512 10.23,5.067 3.004,-10.383 6.247,7.209 11.866,-0.387 0.881,-1.191 0.083,-9.788 6.77,-1.76 6.693,8.035 6.813,-1.738 8.027,-1.548 9.137,1.428 8.958,8.31 11.735,-0.43 2.037,-6.41 5.237,8.052 10.019,2.026 0.009,-0.012 0.84,-2.924 0.845,-2.954 5.325,0.837 7.721,7.347 8.157,0.868 0.028,-0.409 1.898,-3.041 3.777,0.481 4.366,8.186 6.016,-2.349 6.058,-2.339 4.986,1.13 8.884,9.323 10.662,3.078 0.228,-0.799 2.97,-5.292 5.691,-3.914 3.638,1.836 5.665,5.43 7.236,-0.818 0.085,-0.336 4.025,-5.574 5.683,-3.428 2.057,2.662 7.8,6.071 9.601,-1.365 1.413,-5.828 8.54,2.782 9.147,2.271 1.942,-1.638 4.739,-2.196 5.146,-4.947 0.589,-3.974 4.484,3.264 6.956,-0.908 4.166,-7.036 9.511,9.866 9.719,-3.21 4.087,-1.271 9.978,6.047 11.483,-0.729 2.243,-10.102 7.2,-0.63 10.137,-2.708 6.333,-4.485 -3.266,-3.261 5.376,-7.184 3.056,-1.388 5.706,5.685 8.676,-2.869 2.159,-6.221 8.59,2.475 9.161,-4.397 0.006,-0.097 2.774,-5.624 5.472,-2.386 2.944,3.534 8.46,2.496 9.26,-2.104 1.14,-6.572 10.267,4.777 8.968,-6.944 -0.552,-4.993 11.052,4.728 9.665,-2.337 -0.133,-0.688 -0.102,-0.697 0.072,-1.32 5.271,-4.033 11.424,-1.168 12.788,-1.84 4.027,-1.98 -2.095,-8.747 3.289,-8.64 2.189,0.04 8.967,5.172 6.998,-3.782 -0.637,-2.891 10.934,-2.044 10.382,-5.416 -1.511,-9.146 5.781,-1.958 5.426,-7.752 -0.028,-0.505 2.417,-4.377 5.53,-3.34 10.298,3.439 0.026,-3.714 4.974,-7.409 1.07,-0.801 8.799,2.893 5.698,-3.385 -3.289,-6.665 10.108,1.303 7.99,-5.946 -2.365,-8.095 7.741,1.479 7.055,-7.372 -0.073,-0.926 1.283,-1.217 0.456,-2.536 4.018,-9.108 9.868,4.401 9.188,-7.654 -0.279,-5.018 5.037,3.386 4.119,-4.578 -0.965,-8.357 5.722,-0.928 3.229,-9.346 -1.527,-5.164 13.187,2.163 6.438,-8.478 2.354,-3.902 8.472,-2.597 5.29,-6.704 -3.035,-3.923 11.56,-0.836 4.421,-8.64 -4.726,-5.164 9.035,-4.804 3.437,-11.077 -6.109,-6.846 6.49,-3.432 0.258,-12.144 -4.092,-5.712 8.969,-1.824 0.716,-11.155 -5.106,-5.764 4.986,-3.25 1.909,-9.724 -4.897,-10.296 7.268,-4.489 0.29,-14.686 -2.478,-3.622 7.019,-5.834 0.354,-9.658 -6.509,-3.74 4.142,-1.441 -1.708,-9.767 -4.177,-5.94 1.599,-3.744 -3.806,-9.968 -1.686,-1.945 1.857,-1.679 -3.183,-10.661 -0.796,-1.419 -0.621,-2.471 -0.728,-3.822 -1.656,-1.741 -3.373,-3.434 -5.132,-5.082 -1.691,3.218 4.552,4.274 -0.86,9.544 -2.991,2.911 6.755,8.014 3.58,15.051 -1.073,2.378 6.346,3.992 3.318,7.89 -4.318,5.553 5.21,9.298 1.027,14.518 -0.075,0.094 -1.907,14.789 -1.903,14.85 0.086,0.895 0.264,1.947 0.651,2.764 -6.739,-2.332 1.395,5.996 -5.315,11.585 -9.279,7.729 4.334,1.728 -4.205,15.162 -2.08,3.272 7.74,8.813 -5.248,15.75 -0.677,3.397 4.241,1.257 -3.691,6.976 -8.638,6.231 3.598,12.421 -5.674,14.782 -5.561,1.417 -4.896,7.943 -5.548,8.43 -12.652,9.431 2.043,3.068 -12.026,12.125 -7.411,4.772 3.843,8.672 -4.587,6.716 -5.308,-1.227 -4.248,10.062 -8.865,6.284 -5.137,-4.202 1.137,9.682 -9.976,9.961 -4.017,0.099 -3.417,8.072 -5.226,7.611 -7.997,-2.052 -3.546,7.039 -11.178,6.967 -5.919,-0.059 -0.808,6.459 -8.287,4.934 -6.034,-1.228 -4.865,15.275 -11.287,8.474 -0.184,-0.196 -10.055,0.728 -7.554,8.179 -10.853,-0.983 -14.427,10.353 -19.572,4.88 -3.966,-4.218 -7.142,9.632 -12.882,5.034 -4.175,-3.343 -9.12,10.117 -14.082,6.461 -4.871,-3.589 -9.338,12.562 -14.287,7.085 -6.479,-7.167 -2.996,9.907 -14.683,2.096 -4.372,-2.922 -0.362,6.985 -16.161,7.387 -5.172,0.131 -4.124,5.428 -8.17,1.204 C 8.363,-7.459 1.729,-1.44 0,0"
       style="fill:#2f477d;fill-opacity:1;fill-rule:evenodd;stroke:none"
       transform="matrix(1.3333333,0,0,-1.3333333,1550.3276,973.9412)"
       clip-path="url(#clipPath12)" />
    <path
       id="path13"
       d="m 0,0 c 4.073,14.737 6.843,-6.636 12.41,0.653 0.035,0.044 2.422,11.829 6.502,6.426 0.03,-0.04 3.603,-13.304 5.148,-2.518 1.69,11.786 5.438,-2.185 7.827,-3.31 7.033,-3.309 4.643,2.916 4.825,3.394 2.153,5.665 5.16,1.262 6.388,-1.719 0.663,-1.61 5.405,-3.07 7.286,1.965 2.554,6.831 6.025,-3.138 6.058,-3.165 4.172,-3.348 4.489,14.642 9.471,3.653 2.204,-4.863 7.274,-3.997 6.873,0.128 -0.178,1.825 0.913,5.802 4.082,3.162 3.294,-2.743 6.941,-10.836 7.635,-1.355 0.349,4.761 4.712,2.771 6.057,-2.269 0.215,-0.804 1.956,-1.955 2.089,-2.911 11.177,1.939 -1.237,12.684 12.463,1.963 8.706,-6.815 0.46,12.392 13.444,-0.183 8.73,-8.456 4.644,14.066 16.487,0.129 1.031,-1.212 2.873,-11.353 7.403,1.498 3.384,9.605 7.551,-8.593 8.445,-8.089 3.865,2.171 4.709,9.489 8.129,0.388 3.445,-9.171 11.179,13.215 12.505,-1.289 1.177,-12.87 15.268,9.897 13.501,-1.098 -0.77,-4.8 2.647,-9.461 3.92,-2.304 1.729,9.729 6.612,1.702 6.446,-3.386 -0.002,-0.057 0.589,-2.299 0.614,-2.401 5.493,-2.896 1.901,-1.301 5.728,2.941 1.227,1.357 7.197,1.337 7.053,-4.428 -0.035,-1.432 1.196,-5.228 4.201,-4.247 7.635,2.487 2.026,6.035 5.706,6.161 6.695,0.234 1.247,-14.759 6.798,-11.586 6.626,3.785 1.988,0.829 6.616,5.299 0.145,0.142 6.433,0.916 3.076,-6.166 -0.847,-1.792 -0.297,-5.213 1.011,-6.302 4.24,-3.531 2.079,2.655 5.783,5.002 0.566,0.358 6.106,-1.034 2.894,-6.449 -2.401,-4.04 2.902,-8.347 8.638,0.241 1.667,2.496 4.951,0.959 2.728,-5.049 -3.395,-9.181 4.047,-4.367 6.94,-0.894 8.185,-1.272 -2.816,-7.751 4.69,-12.194 1.845,-1.092 6.067,5.894 7.552,4.569 6.855,-6.118 -4.238,-6.63 3.974,-12.972 0.162,-0.124 11.127,7.311 5.131,-0.694 -1.564,-2.095 1.12,-5.422 4.899,-0.43 0.021,0.026 4.553,-0.007 2.434,-2.973 -0.235,-0.332 -1.976,-3.467 -1.073,-3.99 l 2.789,-0.949 c 5.614,-4.676 6.261,8.802 8.21,-4.682 1.141,-7.882 13.574,7.325 9.079,-6.413 -2.46,-7.515 17.552,2.34 8.314,-9.679 -3.244,-4.221 11.092,-4.394 9.4,-6.682 -8.772,-11.871 15.549,-2.581 8.35,-9.755 -5.137,-5.12 12.893,-3.438 4.039,-14.931 -3.503,-4.549 10.629,1.76 4.624,-7.015 -3.495,-5.106 9.642,-3.275 4.297,-8.724 -4.88,-4.973 7.486,-5.138 5.613,-13.49 -2.898,-12.962 9.279,-1.689 1.689,-16.322 -0.55,-1.06 -0.897,-1.469 -0.686,-2.638 1.396,-0.824 4.276,-4.451 1.985,-7.202 -4.015,-4.821 3.529,-4.479 -1.574,-9.822 -1.819,-1.905 6.964,-2.609 0.235,-10.982 -2.094,-2.611 4.451,0.541 -0.106,-5.696 -3.418,-4.679 3.275,-0.837 -0.529,-7.522 -1.741,-3.048 4.542,-0.642 0.588,-5.988 -3.343,-4.516 1.716,-2.206 -1.389,-8.466 -0.029,-0.068 -1.037,-16.551 -2.068,-17.861 -4.507,-5.738 -1.781,-2.817 -2.492,6.554 -0.393,5.16 2.356,0.666 0.667,6.242 -1.782,5.88 3.84,11.697 1.231,18.502 -1.146,2.987 1.197,2.22 0.354,7.511 -0.464,2.917 1.26,1.745 0.255,6.034 -1.19,5.065 2.074,3.777 -0.973,8.97 -2.217,3.777 4.214,3.277 0.224,8.648 -3.892,5.241 3.362,6.266 -1.207,8.857 -5.156,2.925 3.596,4.492 -1.493,9.159 -2.558,2.346 4.294,6.497 -4.975,13.807 -2.342,1.846 1.898,2.872 -2.061,6.098 -3.372,2.75 3.911,3.099 -1.522,7.624 -1.481,1.234 -2.037,1.293 -2.653,3.038 -8.65,13.485 3.482,4.148 -8.432,13.356 -4.861,3.759 4.404,6.293 -3.273,5.984 -3.214,-0.128 -3.989,9.759 -5.459,7.994 -0.283,0.156 -10.7,10.107 -10.142,10.967 4.295,6.659 -9.509,-1.391 -7.102,6.796 3.191,10.83 -11.873,-1.871 -8.566,10.44 1.373,5.108 -8.027,-4.5 -9.917,5.773 -0.35,1.888 -7.277,-3.999 -9.561,5.713 -0.794,3.385 -6.89,-1.514 -6.543,5.86 0.141,2.999 -13.544,-3.436 -12.036,8.201 0.282,2.198 -10.574,0.893 -10.857,7.296 -5.434,-1.915 -4.795,-3.966 -7.775,-1.258 -1.204,1.095 3.036,4.134 -2.291,5.535 -1.713,0.451 -3.045,-4.91 -8.555,0.472 -0.852,0.832 1.954,9.664 -7.229,4.847 -2.707,-1.42 -5.59,0.065 -5.536,4.156 0.081,5.961 -9.031,0.301 -10.137,1.283 -4.435,3.942 -3.641,9.448 -9.148,5.977 -1.648,-1.035 -1.942,-3.649 -7.048,0.882 -3.431,3.045 1.428,8.824 -6.089,4.78 -1.359,-0.731 -4.042,-8.128 -9.358,1.933 -2.8,5.302 -3.227,-5.797 -10.258,2.4 -3.145,3.668 -3.534,-2.517 -7.082,-2.512 -9.433,0.016 -4.235,-0.213 -5.237,4.395 -0.162,0.747 -4.596,1.559 -5.376,-2.155 -0.054,-0.262 -5.448,-5.083 -6.292,1.229 -0.337,2.528 0.365,3.503 -0.771,4.45 -9.467,-0.865 -3.367,-10.275 -12.613,0.09 -2.318,2.598 -6.194,1.854 -8.263,-1.929 -4.978,-9.093 -8.708,12.535 -15.094,-0.323 -1.67,-3.363 -2.994,-3.243 -6.961,0.975 -1.662,1.766 1.687,4.175 -7.298,1.327 -3.44,-1.091 1.9,-8.474 -4.208,-3.285 -0.69,0.586 -2.462,11.567 -9.125,2.486 -0.822,-1.122 -4.659,0.293 -5.77,3.123 -1.573,4.008 -8.633,-2.375 -8.895,-2.245 -7.114,3.525 -2.403,1.017 -6.681,-1.296 -3.112,-1.679 -5.425,8.006 -10.796,1.559 -3.463,-4.159 -7.411,6.654 -11.122,1.552 -0.017,-0.024 1.098,-4.6 -3.291,-3.867 -1.959,0.328 -3.011,5.143 -6.398,2.182 C 21.833,-5.942 24.089,-9.33 18.404,-7 17.163,-6.488 14.291,-3.486 11.834,-8.661 12.334,-9.319 4.09,-1.073 5.191,-6.36 5.566,-8.163 -4.874,-2.813 0,0"
       style="fill:#2f477d;fill-opacity:1;fill-rule:evenodd;stroke:none"
       transform="matrix(1.3333333,0,0,-1.3333333,1341.8383,1002.9529)"
       clip-path="url(#clipPath14)" />
    <path
       id="path15"
       d="M 0,0 C 0.074,1.246 -0.394,16.661 4.352,8.835 6.212,5.767 4.52,1.768 7.512,3.841 7.996,4.177 8.749,-8.898 2.191,-2.215 1.336,-1.344 -0.1,-1.693 0,0"
       style="fill:#2f477d;fill-opacity:1;fill-rule:evenodd;stroke:none"
       transform="matrix(1.3333333,0,0,-1.3333333,1367.2139,1047.8639)"
       clip-path="url(#clipPath16)" />
    <path
       id="path17"
       d="m 0,0 c -0.957,-2.284 1.426,-6.689 0.388,-8.1 -0.809,-1.101 0.876,-8.416 3.995,-1.267 1.684,3.854 1.526,-0.015 0.106,4.868 -0.74,2.551 0.897,0.978 -2.714,3.986 C 1.342,-0.153 0.255,0.609 0,0"
       style="fill:#2f477d;fill-opacity:1;fill-rule:evenodd;stroke:none"
       transform="matrix(1.3333333,0,0,-1.3333333,1385.0555,1032.6171)"
       clip-path="url(#clipPath18)" />
    <path
       id="path19"
       d="m 0,0 c 1.775,-3.32 -0.788,-4.667 0.6,-8.075 1.098,-2.7 -0.349,-7.355 3.993,-2.612 1.19,1.298 -1.72,0.537 1.316,3.563 C 5.939,-7.093 6.387,1.068 0,0"
       style="fill:#2f477d;fill-opacity:1;fill-rule:evenodd;stroke:none"
       transform="matrix(1.3333333,0,0,-1.3333333,1401.1457,1034.4545)"
       clip-path="url(#clipPath20)" />
    <path
       id="path21"
       d="m 0,0 c -4.468,-3.185 -6.501,8.726 -12.529,1.49 -4.285,-5.145 -4.133,10.905 -10.704,3.017 -3.616,-4.342 -8.542,-3.265 -9.911,0.663 -6.752,-3.868 -4.424,-8.754 -10.536,0.577 -0.821,1.254 -5.985,1.532 -5.461,-2.588 0.175,-1.364 -6.019,-2.144 -8.138,4.142 -0.241,0.717 -5.088,-2.001 -3.9,-4.075 1.052,-1.835 -5.691,-0.552 -4.129,7.801 0.384,1.095 2.759,14.324 5.569,8.423 0.304,-0.64 1.383,-6.891 4.626,-6.129 0.601,0.142 2.945,3.233 3.647,4.076 1.012,-2.445 8.109,2.318 7.666,-1.981 -0.046,-0.45 0.257,-3.088 2.384,-0.499 2.869,3.493 3.74,4.16 7.556,0.504 0.865,-0.827 -0.993,-7.364 2.967,-2.722 2.724,3.195 3.369,0.601 7.083,5.5 0.336,0.443 4.726,1.123 2.651,-5.44 -1.256,-3.973 3.797,-2.025 6.747,1.516 1.819,2.184 1.875,3.563 4.238,0.648 0.955,-1.18 -2.018,-4.126 2.362,-5.777 3.171,-1.195 2.689,9.779 7.804,2.313 C 0.84,10.22 0.742,8.382 0.904,8.197 6.697,6.403 5.312,21.436 14.51,7.098 c 2.563,-3.993 8.026,7.143 9.023,7.057 6.905,-0.601 -4.082,-11.772 7.14,-6.412 2.036,0.975 0.982,9.545 6.65,1.533 0.657,-0.928 -0.58,-10.313 5.511,-2.639 1.545,1.946 8.268,3.504 6.581,-4.465 -1.083,-5.117 2.404,3.021 6.472,3.035 9.433,0.036 0.419,-5.671 5.535,-7.72 1.967,-0.786 0.366,2.86 5.631,-0.102 2.914,-1.639 -0.419,10.841 8.648,1.427 0.081,-0.086 -2.849,-7.742 2.017,-9.666 0.02,-0.007 4.483,0.845 3.939,3.627 -0.331,1.703 10.025,10.365 6.001,-1.552 -1.21,-3.593 0.177,-5.194 3.234,-1.278 0.387,0.498 2.642,1.151 4.337,2.17 5.315,3.212 -5.834,-15.095 11.728,-4.788 2.392,-1.515 -0.643,-17.612 5.906,-5.77 0.787,1.414 6.886,3.008 4.449,-5.429 -0.468,-1.633 3.619,-0.065 4.88,1.089 5.592,5.133 5.59,-0.614 4.91,-1.32 -0.895,-0.929 -3.282,-11.096 6.15,-3.864 2.96,2.276 1.731,-5.399 1.624,-6.31 4.764,0.623 8.226,5.777 6.094,-1.04 -0.134,-0.418 2.08,-5.524 4.511,-3.507 3.254,2.7 7.855,2.99 4.277,-2.712 -0.508,-0.817 1.595,-7.344 7.15,-2.329 0.158,0.143 4.895,0.262 1.69,-3.586 -1.026,-1.232 0.466,-9.985 5.619,-4.774 0.26,0.264 6.567,4.186 2.862,-2.819 -0.018,-0.03 0.99,-8.479 4.731,-3.987 0.832,0.998 4.747,-1.763 3.709,-4.143 -2.317,-5.314 11.081,1.823 7.433,-5.712 -0.984,-2.028 3.187,-7.438 7.892,-7.605 4.286,-0.151 0.857,-5.395 3.505,-7.6 4.938,-4.114 9.998,-4.246 6.53,-8.145 -1.344,-1.517 4.779,-7.164 5.329,-10.091 0.115,-0.605 2.059,-3.567 2.211,-3.673 10.007,-8.325 -4.355,-0.969 6.69,-9.703 2.018,-1.595 -2.303,-0.64 3.199,-4.867 1.668,-1.282 -3.971,-0.406 0.516,-4.813 3.016,-2.962 -5.802,-0.423 1.603,-6.591 3.304,-2.752 -3.488,-2.047 0.354,-6.126 4.592,-4.873 -2.077,-1.543 2.038,-6.701 1.514,-1.897 -1.172,-0.992 0.547,-5.318 1.917,-4.816 -3.444,-7.586 0.725,-13.294 1.805,-2.474 -1.53,-1.981 -0.641,-7.248 0.449,-2.68 1.459,-7.779 -0.173,-9.738 -1.86,-2.233 0.772,-5.489 -0.861,-8.031 -2.123,-3.309 1.989,-1.928 -0.491,-4.226 -1.815,-1.683 2.073,0.037 -0.52,-3.516 -1.561,-2.137 1.718,-5.886 -1.451,-10.01 -0.801,-1.04 -0.165,-2.203 -1.194,-3.438 -6.475,3.579 1.049,1.602 -1.964,8.962 -0.745,1.821 1.865,5.355 0.84,10.427 -0.17,0.826 1.632,9.916 0.052,12.165 -1.556,2.222 6.28,3.146 2.284,7.918 -3.036,3.627 -0.127,9.681 -2.59,13.724 -0.468,0.771 1.604,3.004 -1.865,8.665 -3.14,5.121 -0.806,7.396 -4.129,14.982 -2.66,6.066 -0.068,5.096 -4.667,12.604 -3.022,4.936 -0.376,2.081 -4.252,6.28 -4.02,4.36 -0.858,6.885 -3.943,7.344 -7.157,1.067 -5.29,6.12 -7.124,10.868 -1.419,3.682 2.483,1.488 -4.56,6.804 -3.771,2.847 1.572,2.12 -3.953,5.016 -4.622,2.425 0.423,3.456 -6.162,8.941 -0.435,0.363 -2.498,1.801 -2.314,2.478 -2.736,4.681 -4.227,-0.642 -5.119,0.133 -3.89,3.391 -1.207,2.546 -1.075,5.141 0.06,1.295 -1.504,2.723 -3.306,1.024 -1.722,-1.628 -5.329,-0.751 -4.438,2.109 0.465,1.483 1.223,3.114 -0.772,3.835 -0.04,0.016 -7.231,-3.097 -5.817,4.648 0.003,0.018 -0.877,2.374 -2.435,0.504 -1.226,-1.473 -2.335,-0.919 -3.722,0.38 -2.101,1.967 2.377,4.747 -2.018,3.968 -6.501,-1.151 -2.153,8.759 -6.598,6.586 -1.595,-0.781 -1.174,-3.302 -3.282,-0.696 -0.969,1.192 -0.89,8.949 -5.262,3.7 -0.811,-0.973 -1.751,-0.185 -2.796,0.749 -1.765,1.573 0.915,2.362 -2.367,4.437 -0.972,0.614 -2.611,-4.277 -6.414,0.408 -0.987,1.22 0.582,1.595 -1.912,3.672 -1.029,0.858 -0.912,1.671 -2.844,-0.602 -1.879,-2.208 -3.95,5.18 -4.894,5.005 -2.192,-0.411 -0.832,1.263 -3.309,-0.927 -0.8,-0.706 -1.262,-0.094 -2.106,-0.093 -1.109,0.186 -6.297,-3.191 -5.69,2.859 0.04,0.408 -2.254,4.068 -6.286,1.082 -3.305,-2.45 -6.916,0.906 -5.132,4.527 1.45,2.955 -5.156,2.653 -8.818,-1.743 -6.488,2.125 2.653,6.413 -7.152,6.76 -2.876,0.102 -2.585,1.283 -3.736,-0.027 -2.253,-2.554 -3.933,8.628 -10.989,2.592 -8.727,-7.457 0.311,1.964 -6.846,5.812 -1.51,0.812 -7.067,-5.101 -7.128,3.759 -0.013,1.685 -7.48,1.717 -6.154,-0.887 0.767,-1.5 -2.837,0.341 -6.012,-0.665 -1.864,-0.59 4.688,10.581 -4.97,3.592 C 23.415,-1.958 24.819,-9 19.338,-1.883 17.042,1.099 18.828,3.656 11.126,-1.605 10.223,-2.22 8.728,-6.655 6.381,1.246 6.137,2.068 1.279,1.903 0,0"
       style="fill:#2f477d;fill-opacity:1;fill-rule:evenodd;stroke:none"
       transform="matrix(1.3333333,0,0,-1.3333333,1501.7707,1059.3413)"
       clip-path="url(#clipPath22)" />
    <path
       id="path23"
       d="m 0,0 c -2.258,-3.857 -2.818,-1.754 -2.312,-7.39 0.115,-1.295 -4.614,-2.126 1.301,-6.443 1.361,-0.994 4.746,6.166 3.973,7.581 C 1.634,-3.83 2.603,-2.373 0.143,-0.324 -0.012,-0.195 -0.118,-0.202 0,0"
       style="fill:#2f477d;fill-opacity:1;fill-rule:evenodd;stroke:none"
       transform="matrix(1.3333333,0,0,-1.3333333,1369.8483,1077.8731)"
       clip-path="url(#clipPath24)" />
    <path
       id="path25"
       d="m 0,0 c 3.236,-2.082 1.143,-5.007 3.756,-1.937 0.997,1.17 2.194,4.319 4.159,2.127 0.209,-0.234 -2.02,-7.811 2.666,-4.693 3.784,2.518 -0.692,2.311 6.324,3.408 2.442,0.381 1.928,-0.491 2.557,-3.66 0.92,0.189 1.826,0.366 2.715,0.531 l 0.574,0.106 c -0.05,0.261 -0.054,0.764 0.579,2.123 1.165,2.497 7.823,-0.627 2.293,5.746 C 25.609,3.767 22.15,7.036 22.058,7.099 16.454,4.855 19.336,2.483 16.532,2.822 11.67,3.409 12.786,13.815 7.138,6.435 7.123,6.414 8.188,2.107 3.327,4.341 1.697,5.09 -0.031,14.391 -3.384,5.265 -4.868,1.224 -5.78,3.027 -8.784,5.654 c -0.854,0.744 -2.581,7.554 -6.229,2.456 -1.638,-2.293 -1.424,-7.887 -6.693,-3.121 -1.852,1.672 0.098,1.876 -2.556,2.258 -1.295,0.187 -0.413,2.004 -2.411,2.718 -1.919,-0.585 -3.445,-4.49 -2.524,-6.849 1.058,-2.711 -3.387,-7.917 0.542,-8.506 3.161,-0.472 4.459,11.854 8.497,2.857 0.682,-1.521 4.055,-4.272 5.743,-0.491 0.577,1.292 2.462,4.613 4.017,3.586 4.474,-2.955 0.137,-4.328 4.035,-5.912 3.274,-1.328 2.398,6.911 5.627,5.664 C -0.573,0.251 -0.063,0.058 0,0"
       style="fill:#2f477d;fill-opacity:1;fill-rule:evenodd;stroke:none"
       transform="matrix(1.3333333,0,0,-1.3333333,1422.7971,1092.3268)"
       clip-path="url(#clipPath26)" />
    <path
       id="path27"
       d="m 0,0 c -1.809,5.829 7.394,13.991 7.742,5.819 0.286,-6.742 9.187,10.816 11.342,-0.399 0.522,-2.709 5.132,7.205 5.947,-2.088 0.322,-3.687 7.182,-4.066 7.338,-3.038 0.138,0.919 -0.473,3.618 2.483,5.022 2.169,1.031 1.62,-4.354 2.3,-4.898 2.534,-2.027 1.959,-6.726 6.584,-0.804 0.582,0.743 -2.447,4.068 3.562,5.294 5.053,-4.209 -2.91,-1.017 3.764,-6.692 2.144,-1.822 0.497,-3.001 4.403,2.942 0.958,1.46 5.525,-0.642 4.439,-2.573 -0.254,-0.457 2.837,-3.005 -0.845,-7.328 -3.091,-3.63 -1.488,-9.128 -7.134,-2.068 -4.532,5.667 -1.199,-5.651 -7.859,2.668 -3.009,3.758 1.035,-4.787 -7.191,2.181 -1.267,1.074 -1.826,0.864 -2.562,0.516 C 29.198,1.902 17.796,2.653 0,0"
       style="fill:#2f477d;fill-opacity:1;fill-rule:evenodd;stroke:none"
       transform="matrix(1.3333333,0,0,-1.3333333,1465.3141,1095.7611)"
       clip-path="url(#clipPath28)" />
    <path
       id="path29"
       d="m 0,0 c -4.415,5.245 -1.067,7.18 -6.37,3.977 -5.223,3.173 -3.092,0.611 -6.693,6.4 -0.282,0.453 -3.361,-1.103 -6.429,1.452 -4.003,3.335 -0.273,5.106 -3.658,3.638 -0.785,-0.343 -5.361,0.227 -6.808,0.47 -7.757,1.305 -1.643,8.533 -8.49,1.376 -2.916,-3.045 -4.105,14.203 -7.295,3.951 -0.577,-1.866 -6.822,-0.017 -7.06,3.971 -0.365,6.113 -5.5,-0.564 -6.954,-1.045 -9.185,-3.055 0.25,13.968 -8.941,0.72 -4.545,0.153 -3.738,6.514 -4.901,7.481 l -0.449,0.372 c -8.067,-8.302 -3.001,-4.585 -3.372,-8.434 -0.006,-0.054 -4.181,-9.669 1.077,-9.803 4.226,-0.11 -1.13,10.587 9.41,2.397 5.022,-3.901 3.645,4.951 7.821,1.473 3.252,-2.709 -0.269,-5.132 7.09,-5.906 2.017,-0.216 4.947,5.291 6.676,-2.076 0.82,-3.482 4.936,4.863 8.709,-0.481 2.273,-3.215 6.847,5.263 8.686,-2.97 1.564,-7.006 3.087,4.122 7.144,-4.118 4.44,-9.017 3.095,-7.811 9.046,-3.168 3.542,-5.956 5.83,1.639 8.916,-7.725 1.187,-3.608 7.683,5.812 8.011,-2.613 0.221,-5.671 7.577,-0.89 8.478,-7.157 0.621,-4.32 3.912,5.086 7.899,-5.337 2.114,-5.53 7.725,3.619 10.477,-4.438 1.031,-3.011 5.043,-2.71 6.347,-8.725 0.27,-1.258 5.524,-5.51 5.532,-6.859 1.279,-2.77 8.717,-4.889 11.383,-12.281 0.686,-1.902 7.516,-5.573 9.19,-11.392 2.151,-7.484 9.104,-7.173 7.569,-13.37 -0.836,-3.376 8.198,-5.919 7.931,-12.319 -0.379,-9.034 8.135,-6.324 3.379,-15.947 -1.019,-2.062 2.533,-1.153 2.364,-6.445 -0.191,-6.165 1.797,-11.911 1.201,-18.098 -0.083,-0.859 0.224,-5.595 -0.506,-7.358 -0.019,-0.048 -0.502,-11.116 0.831,-12.416 1.883,-1.838 2.285,5.812 2.322,5.871 3.626,6.67 -2.5,7.719 1.282,16.367 1.897,4.338 -2.474,6.233 -1.908,13.981 0.133,1.854 -1.66,7.004 -0.78,11.295 2.431,11.842 -3.324,9.143 -4.601,22.612 -0.327,3.419 -9.287,11.955 -12.157,21.276 -0.124,0.401 -6.463,5.502 -9.574,10.682 -4.229,7.041 -11.184,6.178 -14.406,19.733 -0.363,1.528 -7.785,1.158 -7.657,5.874 0.019,0.638 -2.118,0.365 -3.901,1.851 -3.744,3.118 -1.856,6.638 -5.613,3.894 -7.557,3.398 -1.585,-2.886 -7.049,6.581 -0.536,0.929 -3.551,-2.627 -7.018,3.917 -0.013,0.024 -0.624,5.569 -4.264,3.396 C 7.854,-7.906 6.279,0.636 2.469,-0.263 1.327,-0.531 0.464,-0.001 0,0"
       style="fill:#2f477d;fill-opacity:1;fill-rule:evenodd;stroke:none"
       transform="matrix(1.3333333,0,0,-1.3333333,1659.4003,1139.9712)"
       clip-path="url(#clipPath30)" />
    <path
       id="path31"
       d="m 0,0 c 1.434,1.442 6.896,9.728 8.993,7.931 4.75,-4.067 -1.909,-4.433 -0.808,-8.895 2.172,-8.802 6.41,7.92 10.844,5.492 6.096,-3.337 -3.593,-11.839 5.446,-7.401 4.487,2.198 2.41,10.651 6.618,6.259 2.501,-2.612 -4.055,-9.661 4.266,-9.753 3.151,-0.037 5.47,13.804 10.266,6.412 0.415,-0.635 -5.415,-12.212 2.513,-4.515 1.564,1.517 1.744,9.45 6.848,2.046 0.456,-0.66 -4.27,-6.533 0.13,-7.937 1.629,-0.521 4.845,9.354 9.096,2.564 0.021,-0.032 -0.923,-8.945 5.239,-2.578 0.717,0.741 0.374,4.108 4.691,-0.319 0.043,-0.045 0.66,-9.052 1.324,-4.139 0.098,0.716 4.893,7.567 6.381,-1.343 0.813,-4.856 12.864,7.624 8.922,-3.372 -0.186,-0.52 3.241,-6.839 8.663,-2.415 0.357,0.293 2.014,-0.49 3.533,-1.478 -0.583,-3.48 -1.113,-7.584 -1.689,-12.158 -1.395,-1.85 -2.767,-3.026 -3.526,-2.54 -9.172,5.869 0.683,7.476 -4.803,9.413 -2.549,0.903 -2.271,-7.55 -7.178,-2.858 -0.082,0.078 0.396,12.197 -6.886,2.479 -1.034,-1.385 -3.746,-1.453 -3.355,3.873 0.039,0.543 -1.666,4.565 -4.247,2.594 -4,-3.06 -1.356,-4.719 -7.728,0.796 -0.724,0.626 1.25,8.235 -4.715,-0.275 -0.487,-0.705 -5.437,0.518 -4.514,5.484 -3.071,3.503 -9.869,-4.769 -8.481,2.241 1.369,6.908 -8.215,-5.461 -9.836,0.782 -0.712,2.732 4.2,4.827 -3.467,4.131 -0.044,-0.005 -3.654,-7.878 -7.649,-7.667 -2.573,1.705 1.12,7.873 -0.019,8.822 -4.636,3.861 -1.773,-7.497 -13.428,0.743 C 10.733,-7.077 10.541,-8.385 7.539,-6.9 6.409,-6.34 -3.922,-3.938 0,0"
       style="fill:#2f477d;fill-opacity:1;fill-rule:evenodd;stroke:none"
       transform="matrix(1.3333333,0,0,-1.3333333,1505.4877,1144.6844)"
       clip-path="url(#clipPath32)" />
    <path
       id="path33"
       d="m 0,0 c 4.821,-1.084 7.723,5.46 6.283,-1.582 -1.574,-7.665 5.775,3.667 8.061,-4.031 1.659,-5.582 7.209,2.064 7.992,1.327 2.219,-2.089 4.024,-1.625 2.441,-5.754 3.433,0.574 9.974,7.773 5.592,-0.78 -0.223,-0.442 -0.067,-3.874 3.29,0.156 2.419,2.904 6.783,4.253 3.24,-4.051 4.17,3.168 4.805,6.177 6.8,3.147 0.038,-0.058 -2.057,-9.324 1.028,-6.915 0.825,0.646 7.535,12.816 5.766,0.107 4.223,-3.518 7.953,2.462 8.84,1.722 5.056,-4.211 -4.19,-8.201 6.839,-3.468 4.655,2.001 3.993,-8.539 10.066,-1.248 2.436,-2.03 3.576,-0.286 3.17,-5.119 1.532,-1.277 13.018,5.532 10.418,-0.394 3.088,-4.705 5.988,4.808 9.218,-5.271 0.619,-1.933 3.621,2.557 6.641,-3.123 1.132,-2.125 2.77,5.338 8.56,-1.986 0.977,-1.233 2.609,-2.15 4.062,-3.008 -0.088,-0.946 -0.171,-1.916 -0.245,-2.908 -1.299,0.894 -2.948,1.287 -5.074,-1.872 -6.08,4.307 -1.883,8.603 -12.662,4.418 -1.551,-0.606 -1.811,5.639 -8.467,4.047 -2.815,-0.67 -4.088,7.018 -5.776,6.032 -12.59,-7.333 -5.03,2.636 -16.336,2.293 -3.384,-0.101 -1.666,5.765 -10.148,2.692 -3.33,-1.202 -1.224,4.537 -7.987,2.011 -16.697,-6.234 -4.819,6.573 -13.294,6.464 -3.067,-0.038 -11.595,-8.496 -10.441,1.884 0.453,4.067 -8.986,-2.063 -9.618,3.904 -0.287,2.724 -5.966,-3.375 -9.008,2.296 C 1.21,-9.533 3.254,-11.474 0.177,-3.177 -0.051,-2.563 -0.539,0.121 0,0"
       style="fill:#2f477d;fill-opacity:1;fill-rule:evenodd;stroke:none"
       transform="matrix(1.3333333,0,0,-1.3333333,1476.9307,1180.2847)"
       clip-path="url(#clipPath34)" />
    <path
       id="path35"
       d="M 0,0 C 0.259,0.599 3.782,7.76 5.097,7.111 9.642,4.874 3.826,5.304 4.441,0.043 5.029,-4.994 0.096,0.219 0,0"
       style="fill:#2f477d;fill-opacity:1;fill-rule:evenodd;stroke:none"
       transform="matrix(1.3333333,0,0,-1.3333333,1447.7763,1231.8192)"
       clip-path="url(#clipPath36)" />
    <path
       id="path37"
       d="M 0,0 C -4.662,-0.77 -10.49,-18.144 0.199,-3.195 1.819,-0.939 -0.392,-0.063 0,0"
       style="fill:#2f477d;fill-opacity:1;fill-rule:evenodd;stroke:none"
       transform="matrix(1.3333333,0,0,-1.3333333,1471.166,1226.8851)"
       clip-path="url(#clipPath38)" />
    <path
       id="path39"
       d="m 0,0 c -6.019,-2.8 -5.768,-10.582 -1.923,-6.222 1.206,1.368 4.829,-0.299 2.912,3.68 C 0.59,-1.712 0.714,0.331 0,0"
       style="fill:#2f477d;fill-opacity:1;fill-rule:evenodd;stroke:none"
       transform="matrix(1.3333333,0,0,-1.3333333,1482.5565,1228.8472)"
       clip-path="url(#clipPath40)" />
    <path
       id="path41"
       d="m 0,0 c -6.506,2.231 -10.786,-11.767 -3.371,-5.174 1.054,0.939 2.505,0.331 4.767,3.048 C -0.317,-0.699 0.978,-0.335 0,0"
       style="fill:#2f477d;fill-opacity:1;fill-rule:evenodd;stroke:none"
       transform="matrix(1.3333333,0,0,-1.3333333,1496.4321,1234.8975)"
       clip-path="url(#clipPath42)" />
    <path
       id="path43"
       d="m 0,0 c -7.71,-3.634 -1.314,-12.051 0.459,-5.752 -2.479,2.063 2.79,1.671 -0.443,5.291 z"
       style="fill:#2f477d;fill-opacity:1;fill-rule:evenodd;stroke:none"
       transform="matrix(1.3333333,0,0,-1.3333333,1508.2827,1237.4241)"
       clip-path="url(#clipPath44)" />
    <path
       id="path45"
       d="M 0,0 C -0.129,-0.945 -0.432,-1.102 -0.27,-1.978 -5.471,-5.833 -0.66,-9.804 0.637,-4.914 0.645,-4.882 4.185,-0.887 0,0"
       style="fill:#2f477d;fill-opacity:1;fill-rule:evenodd;stroke:none"
       transform="matrix(1.3333333,0,0,-1.3333333,1520.6505,1239.0981)"
       clip-path="url(#clipPath46)" />
    <path
       id="path47"
       d="M 0,0 C -4.857,-1.213 -3.014,-10.92 2.033,-1.466 1.773,-1.035 0.438,0.111 0,0"
       style="fill:#2f477d;fill-opacity:1;fill-rule:evenodd;stroke:none"
       transform="matrix(1.3333333,0,0,-1.3333333,1535.2657,1243.3776)"
       clip-path="url(#clipPath48)" />
    <path
       id="path49"
       d="M 0,0 C -2.223,-3.387 -8.874,-8.712 -4.32,-11.321 -4.081,-11.458 3.936,-3.279 0,0"
       style="fill:#2f477d;fill-opacity:1;fill-rule:evenodd;stroke:none"
       transform="matrix(1.3333333,0,0,-1.3333333,1552.4971,1240.1057)"
       clip-path="url(#clipPath50)" />
    <path
       id="path51"
       d="m 0,0 c -0.623,-0.995 -8.619,-7.92 -3.496,-9.046 1.772,-0.389 3.635,6.072 4.453,7.054 C 1.821,-0.955 -0.142,-0.226 0,0"
       style="fill:#2f477d;fill-opacity:1;fill-rule:evenodd;stroke:none"
       transform="matrix(1.3333333,0,0,-1.3333333,1562.1027,1248.8432)"
       clip-path="url(#clipPath52)" />
    <path
       id="path53"
       d="M 0,0 C -9.679,-9.669 -1.22,-10.882 0.93,-2.933 1.021,-2.601 -0.098,-0.101 0,0"
       style="fill:#2f477d;fill-opacity:1;fill-rule:evenodd;stroke:none"
       transform="matrix(1.3333333,0,0,-1.3333333,1570.4665,1253.79)"
       clip-path="url(#clipPath54)" />
    <path
       id="path55"
       d="m 0,0 c -5.894,-7.076 -4.161,-4.491 -1.946,-8.222 0.487,-0.815 4.013,6.501 3.081,7.276 C 0.758,-0.631 0,0 0,0"
       style="fill:#2f477d;fill-opacity:1;fill-rule:evenodd;stroke:none"
       transform="matrix(1.3333333,0,0,-1.3333333,1580.9264,1258.6475)"
       clip-path="url(#clipPath56)" />
    <path
       id="path57"
       d="m 0,0 c -12.678,-3.828 -5.926,-12.122 -1.12,-4.987 0.341,0.514 5.107,1.129 2.028,4.392 C 0.725,-0.399 0.174,0.05 0,0"
       style="fill:#2f477d;fill-opacity:1;fill-rule:evenodd;stroke:none"
       transform="matrix(1.3333333,0,0,-1.3333333,1597.4149,1267.0581)"
       clip-path="url(#clipPath58)" />
    <path
       id="path59"
       d="M 0,0 C 3.099,-1.944 -8.13,-7.531 -2.071,-9.955 -2.015,-9.977 9.572,-3.545 1.744,0.936 1.272,1.206 -0.205,0.129 0,0"
       style="fill:#2f477d;fill-opacity:1;fill-rule:evenodd;stroke:none"
       transform="matrix(1.3333333,0,0,-1.3333333,1605.2556,1272.8547)"
       clip-path="url(#clipPath60)" />
    <path
       id="path61"
       d="m 0,0 c -3.524,0.339 -6.515,-14.508 0.239,-5.298 1.27,1.725 4.848,4.663 0.295,5.883 C 0.279,0.654 0.13,0.556 -0.062,0.421 Z"
       style="fill:#2f477d;fill-opacity:1;fill-rule:evenodd;stroke:none"
       transform="matrix(1.3333333,0,0,-1.3333333,1621.2463,1285.6227)"
       clip-path="url(#clipPath62)" />
    <path
       id="path63"
       d="m 0,0 c 1.941,2.01 4.798,5.824 5.512,-0.269 0.77,-6.577 8.446,-2.617 10.038,-9.463 1.267,-5.445 10.434,2.142 9.542,-6.783 -0.861,-8.647 12.5,-10.125 13.232,-12.163 2.099,-5.852 4.621,-3.662 6.511,-8.814 2.155,-5.874 6.27,-3.499 5.332,-10.272 -0.469,-3.391 4.323,-0.553 2.703,-7.579 -0.645,-2.796 5.687,-4.318 6.583,-10.951 0.428,-3.184 3.47,-5.173 1.432,-9.241 -1.322,-2.634 2.856,-0.582 0.768,-5.108 -0.876,-1.899 1.936,-2.247 0.091,-6.395 -1.809,-4.05 5.318,-1.597 0.922,-6.275 -0.26,-0.281 1.321,-4.892 1.036,-6.002 -0.065,-0.254 0.577,-5.282 0.23,-7.848 -0.734,-0.137 -1.421,-0.259 -2.063,-0.36 -1.832,2.993 2,6.738 -0.468,9.552 -3.034,3.459 -1.467,4.519 -2.25,7.931 -0.63,2.76 1.39,0.119 -1.177,4.562 -1.718,2.972 2.461,3.874 -2.29,9.019 -0.035,0.038 -3.46,10.537 -3.348,11.742 0.825,8.748 -4.215,2.243 -3.61,10.781 0.411,5.83 -2.373,1.408 -4.6,8.402 -3.237,10.166 -14.204,12.937 -18.91,21.692 -1.027,1.907 -2.695,1.43 -3.226,4.042 -0.404,1.969 0.182,-0.932 -2.997,1.716 -0.88,0.733 -4.914,4.725 -5.602,4.187 -1.675,-1.292 -2.146,3.199 -6.026,2.471 C 7.347,-11.43 6.387,-10.835 5.096,-9.901 3.257,-6.276 1.566,-2.986 0,0"
       style="fill:#2f477d;fill-opacity:1;fill-rule:evenodd;stroke:none"
       transform="matrix(1.3333333,0,0,-1.3333333,1680.2699,1198.4876)"
       clip-path="url(#clipPath64)" />
    <path
       id="path65"
       d="m 0,0 c 2.039,-3.417 7.551,-6.274 10.425,-11.068 3.763,-6.274 5.558,-5.278 5.474,-14.749 -0.045,-5.08 8.001,-12.259 5.188,-23.641 -0.86,1.594 -2.828,5.256 -5.608,10.474 -0.006,0.24 -0.007,0.464 -0.009,0.669 10e-4,0.097 -1.703,11.744 -1.721,11.787 -1.907,4.619 -3.971,11.584 -7.873,14.497 -2.803,2.091 2.121,2.354 -5.135,5.978 -1.556,0.777 -2.87,1.732 -4.017,2.814 -3.581,6.926 -7.345,14.27 -11.15,21.79 C -10.868,18.763 -1.985,3.328 0,0"
       style="fill:#2f477d;fill-opacity:1;fill-rule:evenodd;stroke:none"
       transform="matrix(1.3333333,0,0,-1.3333333,1725.9069,1275.5332)"
       clip-path="url(#clipPath66)" />
    <path
       id="path67"
       d="m 0,0 c -7.736,2.255 -15.489,4.453 -23.284,6.492 -7.779,2.134 -15.581,4.004 -23.462,5.603 -15.752,3.182 -31.734,5.251 -47.779,5.964 -16.039,0.713 -32.148,0.092 -48.029,-2.164 -15.868,-2.262 -31.542,-6.131 -46.386,-12.109 -7.412,-2.996 -14.616,-6.511 -21.413,-10.68 -6.79,-4.167 -13.203,-8.97 -18.809,-14.571 -5.58,-5.593 -10.406,-12.02 -13.399,-19.241 -1.491,-3.6 -2.497,-7.389 -2.854,-11.234 -0.359,-3.843 -0.029,-7.732 0.97,-11.449 2.001,-7.475 6.762,-14.018 12.622,-19.202 5.91,-5.193 12.817,-9.26 20.138,-12.278 7.328,-3.034 15.083,-5.039 22.953,-6.261 7.873,-1.245 15.876,-1.683 23.866,-1.547 15.994,0.306 31.922,2.955 47.373,7.199 15.449,4.292 30.462,10.171 44.79,17.397 28.67,14.445 54.692,34.106 76.578,57.598 4.606,4.894 8.944,10.075 13.381,15.202 C 11.521,-3.467 5.772,-1.694 0,0 m 107.201,-41.673 c -6.044,3.014 -10.703,5.326 -11.93,5.934 -0.195,-0.106 -0.398,-0.203 -0.616,-0.276 -1.966,-0.653 -4.089,0.411 -4.742,2.377 -0.155,0.466 -0.207,0.941 -0.18,1.403 -14.279,6.391 -28.974,12.049 -43.751,17.328 -8.521,3.034 -17.097,5.915 -25.713,8.673 -4.701,-5.413 -9.302,-10.956 -14.261,-16.234 -22.103,-23.757 -48.384,-43.646 -77.37,-58.275 -14.487,-7.318 -29.674,-13.279 -45.328,-17.64 -15.657,-4.312 -31.82,-7.017 -48.12,-7.341 -8.144,-0.145 -16.319,0.296 -24.395,1.566 -8.071,1.249 -16.058,3.303 -23.654,6.441 -7.591,3.125 -14.789,7.342 -21.019,12.809 -6.181,5.459 -11.367,12.499 -13.572,20.705 -1.1,4.076 -1.463,8.354 -1.073,12.547 0.386,4.196 1.478,8.293 3.071,12.146 3.209,7.725 8.3,14.438 14.096,20.241 5.828,5.807 12.434,10.736 19.397,14.999 6.971,4.263 14.328,7.84 21.88,10.884 15.125,6.069 31.03,9.97 47.106,12.243 16.088,2.266 32.378,2.873 48.581,2.134 16.208,-0.739 32.335,-2.847 48.218,-6.074 7.935,-1.621 15.838,-3.522 23.621,-5.672 7.817,-2.058 15.591,-4.275 23.347,-6.549 6.173,-1.822 12.319,-3.731 18.45,-5.69 0.194,0.221 0.384,0.444 0.578,0.665 5.317,6.084 10.691,12.118 16.122,18.099 10.865,11.959 21.923,23.743 33.18,35.331 22.514,23.178 45.741,45.667 69.769,67.279 24.016,21.62 48.827,42.373 74.558,61.943 25.757,19.525 52.437,37.89 80.35,54.249 27.895,16.342 57.067,30.717 87.68,41.363 7.654,2.648 15.408,5.004 23.222,7.149 7.838,2.062 15.745,3.861 23.72,5.332 7.988,1.402 16.036,2.469 24.121,3.161 8.066,0.644 16.15,1.095 24.242,1.298 32.34,0.829 64.939,-1.999 96.336,-10.203 15.679,-4.105 31.035,-9.563 45.641,-16.651 14.575,-7.105 28.503,-15.767 40.631,-26.672 3.02,-2.735 5.917,-5.615 8.614,-8.692 2.691,-3.079 5.21,-6.339 7.271,-9.956 1.014,-1.817 1.938,-3.712 2.491,-5.839 0.264,-1.064 0.453,-2.197 0.286,-3.454 -0.089,-0.624 -0.292,-1.293 -0.699,-1.901 -0.095,-0.153 -0.223,-0.293 -0.338,-0.435 l -0.335,-0.324 c -0.217,-0.225 -0.469,-0.397 -0.712,-0.581 -2.035,-1.385 -4.321,-1.635 -6.424,-1.698 -2.129,-0.034 -4.2,0.21 -6.234,0.557 -8.112,1.52 -15.716,4.458 -23.169,7.611 -7.427,3.232 -14.674,6.84 -21.699,10.831 7.345,-3.356 14.77,-6.513 22.287,-9.381 3.754,-1.442 7.542,-2.788 11.367,-3.978 3.818,-1.199 7.689,-2.237 11.586,-2.871 1.943,-0.316 3.901,-0.523 5.809,-0.474 1.885,0.051 3.803,0.374 5.121,1.318 0.713,0.542 1.003,0.884 1.107,1.663 0.105,0.749 -0.013,1.652 -0.24,2.537 -0.462,1.786 -1.309,3.559 -2.263,5.256 -1.938,3.401 -4.377,6.566 -6.995,9.556 -2.626,2.99 -5.464,5.808 -8.427,8.488 -11.909,10.696 -25.673,19.254 -40.089,26.267 -14.448,7 -29.661,12.397 -45.206,16.455 -31.131,8.112 -63.503,10.905 -95.651,10.058 -8.044,-0.208 -16.081,-0.662 -24.104,-1.308 -7.999,-0.69 -15.961,-1.752 -23.872,-3.145 -7.899,-1.463 -15.736,-3.251 -23.508,-5.302 -7.75,-2.133 -15.444,-4.476 -23.043,-7.111 C 351.931,262.903 322.911,248.584 295.14,232.288 267.351,215.976 240.766,197.651 215.093,178.162 189.445,158.628 164.705,137.906 140.753,116.313 116.792,94.731 93.623,72.268 71.168,49.119 59.94,37.545 48.912,25.777 38.078,13.835 32.747,7.957 27.473,2.026 22.254,-3.951 c 8.257,-2.671 16.477,-5.457 24.648,-8.381 14.83,-5.326 29.507,-10.999 43.93,-17.48 0.399,0.4 0.884,0.726 1.457,0.916 1.966,0.654 4.089,-0.41 4.743,-2.376 0.107,-0.323 0.152,-0.648 0.17,-0.972 1.555,-0.771 6.62,-3.286 12.964,-6.451"
       style="fill:#9cd7c6;fill-opacity:1;fill-rule:nonzero;stroke:none"
       transform="matrix(1.3333333,0,0,-1.3333333,646.02707,947.14107)"
       clip-path="url(#clipPath68)" />
    <path
       id="path69"
       d="m 0,0 c -7.736,2.255 -15.489,4.453 -23.284,6.492 -7.779,2.134 -15.581,4.004 -23.462,5.603 -15.752,3.182 -31.734,5.251 -47.779,5.964 -16.039,0.713 -32.148,0.092 -48.029,-2.164 -15.868,-2.262 -31.542,-6.131 -46.386,-12.109 -7.412,-2.996 -14.616,-6.511 -21.413,-10.68 -6.79,-4.167 -13.203,-8.97 -18.809,-14.571 -5.58,-5.593 -10.406,-12.02 -13.399,-19.241 -1.491,-3.6 -2.497,-7.389 -2.854,-11.234 -0.359,-3.843 -0.029,-7.732 0.97,-11.449 2.001,-7.475 6.762,-14.018 12.622,-19.202 5.91,-5.193 12.817,-9.26 20.138,-12.278 7.328,-3.034 15.083,-5.039 22.953,-6.261 7.873,-1.245 15.876,-1.683 23.866,-1.547 15.994,0.306 31.922,2.955 47.373,7.199 15.449,4.292 30.462,10.171 44.79,17.397 28.67,14.445 54.692,34.106 76.578,57.598 4.606,4.894 8.944,10.075 13.381,15.202 C 11.521,-3.467 5.772,-1.694 0,0 Z m 107.201,-41.673 c -6.044,3.014 -10.703,5.326 -11.93,5.934 -0.195,-0.106 -0.398,-0.203 -0.616,-0.276 -1.966,-0.653 -4.089,0.411 -4.742,2.377 -0.155,0.466 -0.207,0.941 -0.18,1.403 -14.279,6.391 -28.974,12.049 -43.751,17.328 -8.521,3.034 -17.097,5.915 -25.713,8.673 -4.701,-5.413 -9.302,-10.956 -14.261,-16.234 -22.103,-23.757 -48.384,-43.646 -77.37,-58.275 -14.487,-7.318 -29.674,-13.279 -45.328,-17.64 -15.657,-4.312 -31.82,-7.017 -48.12,-7.341 -8.144,-0.145 -16.319,0.296 -24.395,1.566 -8.071,1.249 -16.058,3.303 -23.654,6.441 -7.591,3.125 -14.789,7.342 -21.019,12.809 -6.181,5.459 -11.367,12.499 -13.572,20.705 -1.1,4.076 -1.463,8.354 -1.073,12.547 0.386,4.196 1.478,8.293 3.071,12.146 3.209,7.725 8.3,14.438 14.096,20.241 5.828,5.807 12.434,10.736 19.397,14.999 6.971,4.263 14.328,7.84 21.88,10.884 15.125,6.069 31.03,9.97 47.106,12.243 16.088,2.266 32.378,2.873 48.581,2.134 16.208,-0.739 32.335,-2.847 48.218,-6.074 7.935,-1.621 15.838,-3.522 23.621,-5.672 7.817,-2.058 15.591,-4.275 23.347,-6.549 6.173,-1.822 12.319,-3.731 18.45,-5.69 0.194,0.221 0.384,0.444 0.578,0.665 5.317,6.084 10.691,12.118 16.122,18.099 10.865,11.959 21.923,23.743 33.18,35.331 22.514,23.178 45.741,45.667 69.769,67.279 24.016,21.62 48.827,42.373 74.558,61.943 25.757,19.525 52.437,37.89 80.35,54.249 27.895,16.342 57.067,30.717 87.68,41.363 7.654,2.648 15.408,5.004 23.222,7.149 7.838,2.062 15.745,3.861 23.72,5.332 7.988,1.402 16.036,2.469 24.121,3.161 8.066,0.644 16.15,1.095 24.242,1.298 32.34,0.829 64.939,-1.999 96.336,-10.203 15.679,-4.105 31.035,-9.563 45.641,-16.651 14.575,-7.105 28.503,-15.767 40.631,-26.672 3.02,-2.735 5.917,-5.615 8.614,-8.692 2.691,-3.079 5.21,-6.339 7.271,-9.956 1.014,-1.817 1.938,-3.712 2.491,-5.839 0.264,-1.064 0.453,-2.197 0.286,-3.454 -0.089,-0.624 -0.292,-1.293 -0.699,-1.901 -0.095,-0.153 -0.223,-0.293 -0.338,-0.435 l -0.335,-0.324 c -0.217,-0.225 -0.469,-0.397 -0.712,-0.581 -2.035,-1.385 -4.321,-1.635 -6.424,-1.698 -2.129,-0.034 -4.2,0.21 -6.234,0.557 -8.112,1.52 -15.716,4.458 -23.169,7.611 -7.427,3.232 -14.674,6.84 -21.699,10.831 7.345,-3.356 14.77,-6.513 22.287,-9.381 3.754,-1.442 7.542,-2.788 11.367,-3.978 3.818,-1.199 7.689,-2.237 11.586,-2.871 1.943,-0.316 3.901,-0.523 5.809,-0.474 1.885,0.051 3.803,0.374 5.121,1.318 0.713,0.542 1.003,0.884 1.107,1.663 0.105,0.749 -0.013,1.652 -0.24,2.537 -0.462,1.786 -1.309,3.559 -2.263,5.256 -1.938,3.401 -4.377,6.566 -6.995,9.556 -2.626,2.99 -5.464,5.808 -8.427,8.488 -11.909,10.696 -25.673,19.254 -40.089,26.267 -14.448,7 -29.661,12.397 -45.206,16.455 -31.131,8.112 -63.503,10.905 -95.651,10.058 -8.044,-0.208 -16.081,-0.662 -24.104,-1.308 -7.999,-0.69 -15.961,-1.752 -23.872,-3.145 -7.899,-1.463 -15.736,-3.251 -23.508,-5.302 -7.75,-2.133 -15.444,-4.476 -23.043,-7.111 C 351.931,262.903 322.911,248.584 295.14,232.288 267.351,215.976 240.766,197.651 215.093,178.162 189.445,158.628 164.705,137.906 140.753,116.313 116.792,94.731 93.623,72.268 71.168,49.119 59.94,37.545 48.912,25.777 38.078,13.835 32.747,7.957 27.473,2.026 22.254,-3.951 c 8.257,-2.671 16.477,-5.457 24.648,-8.381 14.83,-5.326 29.507,-10.999 43.93,-17.48 0.399,0.4 0.884,0.726 1.457,0.916 1.966,0.654 4.089,-0.41 4.743,-2.376 0.107,-0.323 0.152,-0.648 0.17,-0.972 1.555,-0.771 6.62,-3.286 12.964,-6.451"
       style="fill:none;stroke:#9cd7c6;stroke-width:3;stroke-linecap:butt;stroke-linejoin:miter;stroke-miterlimit:4;stroke-dasharray:none;stroke-opacity:1"
       transform="matrix(1.3333333,0,0,-1.3333333,646.02707,947.14107)"
       clip-path="url(#clipPath70)" />
    <path
       id="path71"
       d="m 0,0 c 5.417,-1.255 10.16,-2.332 13.182,-2.972 14.997,-3.178 26.348,-10.005 31.12,-18.719 3.265,-5.957 3.517,-12.721 0.746,-20.107 -2.366,-6.306 -6.658,-10.298 -12.756,-11.862 -5.845,-1.5 -9.563,-1.583 -17.654,1.06 -1.764,0.589 -4.377,1.678 -4.377,1.678 -11.284,4.734 -14.37,6.596 -14.37,6.596 2.158,-1.982 2.716,-2.329 5.103,-4.183 9.27,-7.963 22.24,-11.593 32.289,-9.014 7.33,1.88 12.689,6.834 15.5,14.324 3.196,8.523 2.865,16.405 -0.984,23.425 -5.056,9.256 -16.484,16.538 -31.479,20.17"
       style="fill:#2a4260;fill-opacity:1;fill-rule:nonzero;stroke:none"
       transform="matrix(1.3333333,0,0,-1.3333333,791.39813,1008.5968)"
       clip-path="url(#clipPath72)" />
    <path
       id="path73"
       d="m 0,0 c 9.517,-2.984 -49.905,-1.139 -84.682,11.45 -34.777,12.59 -60.217,30.399 -56.822,39.777 3.395,9.378 34.34,6.774 69.117,-5.816 C -37.61,32.822 -16.529,5.184 0,0"
       style="fill:#d4e512;fill-opacity:1;fill-rule:nonzero;stroke:none"
       transform="matrix(1.3333333,0,0,-1.3333333,944.8632,1053.7353)"
       clip-path="url(#clipPath74)" />
    <path
       id="path75"
       d="m 0,0 c -1.138,-1.767 -3.493,-2.276 -5.26,-1.138 -1.766,1.139 -2.276,3.493 -1.138,5.26 1.139,1.767 3.494,2.276 5.26,1.138 C 0.629,4.122 1.138,1.767 0,0"
       style="fill:#2a4260;fill-opacity:1;fill-rule:nonzero;stroke:none"
       transform="matrix(1.3333333,0,0,-1.3333333,759.82053,987.54347)"
       clip-path="url(#clipPath76)" />
    <text
       id="text76"
       xml:space="preserve"
       transform="matrix(1.3333333,0,0,1.3333333,472.51373,1524.4519)"><tspan
         id="tspan76"
         style="font-variant:normal;font-weight:900;font-stretch:normal;font-size:111.228px;font-family:FinalSix-Black;writing-mode:lr-tb;fill:#2d477d;fill-opacity:1;fill-rule:nonzero;stroke:none"
         x="0"
         dx="0 10.566679 11.12282 11.12282 11.12282 9.4543972 8.8982563 10.566679 11.12282"
         y="0">TIDEWATER</tspan></text>
    <text
       id="text77"
       xml:space="preserve"
       transform="matrix(1.3333333,0,0,1.3333333,591.81187,1615.6797)"><tspan
         id="tspan77"
         style="font-variant:normal;font-weight:800;font-stretch:expanded;font-size:61px;font-family:FinalSix-ExtraBold;writing-mode:lr-tb;fill:#2d477d;fill-opacity:1;fill-rule:nonzero;stroke:none"
         x="0"
         dx="0 6.0999999 1.22 6.0999999 6.0999999 6.0999999 6.0999999 5.7950001 6.0999999 5.7950001 9.1499996 5.7950001 6.0999999 6.0999999"
         y="0">FLY OUTFITTERS</tspan></text>
    <text
       id="text78"
       xml:space="preserve"
       transform="matrix(1.3333333,0,0,1.3333333,610.78253,1689.4623)"><tspan
         id="tspan78"
         style="font-variant:normal;font-weight:800;font-stretch:expanded;font-size:36px;font-family:FinalSix-ExtraBold;writing-mode:lr-tb;fill:#9cd7c6;fill-opacity:1;fill-rule:nonzero;stroke:none"
         x="0"
         dx="0 3.5999999 3.5999999 3.5999999 3.4200001 3.5999999 3.5999999 3.5999999 3.5999999 3.5999999 3.5999999 3.5999999 3.5999999 3.4920001 3.5999999 3.5999999 3.5999999 3.5999999 3.132 3.132 3.5999999 3.5999999"
         y="0">SOUTH FREEPORT • MAINE</tspan></text>
  </g>
</svg>
