<?xml version="1.0" encoding="UTF-8" standalone="no"?>
<!-- Created with Inkscape (http://www.inkscape.org/) -->

<svg
   version="1.1"
   id="svg1"
   width="2666.6667"
   height="2666.6667"
   viewBox="0 0 2666.6667 2666.6667"
   sodipodi:docname="TIDE-001 TIDEWATER LOGO Line only  (1).ai"
   xmlns:inkscape="http://www.inkscape.org/namespaces/inkscape"
   xmlns:sodipodi="http://sodipodi.sourceforge.net/DTD/sodipodi-0.dtd"
   xmlns="http://www.w3.org/2000/svg"
   xmlns:svg="http://www.w3.org/2000/svg">
  <defs
     id="defs1">
    <clipPath
       clipPathUnits="userSpaceOnUse"
       id="clipPath2">
      <path
         d="M 0,2000 H 2000 V 0 H 0 Z"
         transform="translate(-593.54861,-1243.5524)"
         id="path2" />
    </clipPath>
    <clipPath
       clipPathUnits="userSpaceOnUse"
       id="clipPath4">
      <path
         d="M 0,2000 H 2000 V 0 H 0 Z"
         transform="translate(-484.52031,-1289.6442)"
         id="path4" />
    </clipPath>
    <clipPath
       clipPathUnits="userSpaceOnUse"
       id="clipPath6">
      <path
         d="M 0,2000 H 2000 V 0 H 0 Z"
         transform="translate(-484.52031,-1289.6442)"
         id="path6" />
    </clipPath>
    <clipPath
       clipPathUnits="userSpaceOnUse"
       id="clipPath8">
      <path
         d="M 0,2000 H 2000 V 0 H 0 Z"
         transform="translate(-708.64742,-1209.6986)"
         id="path8" />
    </clipPath>
    <clipPath
       clipPathUnits="userSpaceOnUse"
       id="clipPath10">
      <path
         d="M 0,2000 H 2000 V 0 H 0 Z"
         transform="translate(-569.86541,-1259.3424)"
         id="path10" />
    </clipPath>
  </defs>
  <sodipodi:namedview
     id="namedview1"
     pagecolor="#ffffff"
     bordercolor="#000000"
     borderopacity="0.25"
     inkscape:showpageshadow="2"
     inkscape:pageopacity="0.0"
     inkscape:pagecheckerboard="0"
     inkscape:deskcolor="#d1d1d1">
    <inkscape:page
       x="0"
       y="0"
       inkscape:label="1"
       id="page1"
       width="2666.6667"
       height="2666.6667"
       margin="0"
       bleed="0" />
  </sodipodi:namedview>
  <g
     id="layer-MC0"
     inkscape:groupmode="layer"
     inkscape:label="Layer 1">
    <path
       id="path1"
       d="m 0,0 c 5.417,-1.255 10.16,-2.332 13.182,-2.972 14.997,-3.178 26.348,-10.005 31.12,-18.719 3.265,-5.957 3.517,-12.721 0.746,-20.107 -2.366,-6.306 -6.658,-10.298 -12.756,-11.862 -5.845,-1.5 -9.563,-1.583 -17.654,1.06 -1.764,0.589 -4.377,1.678 -4.377,1.678 -11.284,4.734 -14.37,6.596 -14.37,6.596 2.158,-1.982 2.716,-2.329 5.103,-4.183 9.27,-7.963 22.24,-11.593 32.289,-9.014 7.33,1.88 12.689,6.834 15.5,14.324 3.196,8.523 2.865,16.405 -0.984,23.425 -5.056,9.256 -16.484,16.538 -31.479,20.17"
       style="fill:#918f90;fill-opacity:1;fill-rule:nonzero;stroke:none"
       transform="matrix(1.3333333,0,0,-1.3333333,791.39813,1008.5968)"
       clip-path="url(#clipPath2)" />
    <path
       id="path3"
       d="m 0,0 c -7.736,2.255 -15.489,4.453 -23.284,6.492 -7.779,2.134 -15.581,4.004 -23.462,5.603 -15.752,3.182 -31.734,5.251 -47.779,5.964 -16.039,0.713 -32.148,0.092 -48.029,-2.164 -15.868,-2.262 -31.542,-6.131 -46.386,-12.109 -7.412,-2.996 -14.616,-6.511 -21.413,-10.68 -6.79,-4.167 -13.203,-8.97 -18.809,-14.571 -5.58,-5.593 -10.406,-12.02 -13.399,-19.241 -1.491,-3.6 -2.497,-7.389 -2.854,-11.234 -0.359,-3.843 -0.029,-7.732 0.97,-11.449 2.001,-7.475 6.762,-14.018 12.622,-19.202 5.91,-5.193 12.817,-9.26 20.138,-12.278 7.328,-3.034 15.083,-5.039 22.953,-6.261 7.873,-1.245 15.876,-1.683 23.866,-1.547 15.994,0.306 31.922,2.955 47.373,7.199 15.449,4.292 30.462,10.171 44.79,17.397 28.67,14.445 54.692,34.106 76.578,57.598 4.606,4.894 8.944,10.075 13.381,15.202 C 11.521,-3.467 5.772,-1.694 0,0 m 107.201,-41.673 c -6.044,3.014 -10.703,5.326 -11.93,5.934 -0.195,-0.106 -0.398,-0.203 -0.616,-0.276 -1.966,-0.653 -4.089,0.411 -4.742,2.377 -0.155,0.466 -0.207,0.941 -0.18,1.403 -14.279,6.391 -28.974,12.049 -43.751,17.328 -8.521,3.034 -17.097,5.915 -25.713,8.673 -4.701,-5.413 -9.302,-10.956 -14.261,-16.234 -22.103,-23.757 -48.384,-43.646 -77.37,-58.275 -14.487,-7.318 -29.674,-13.279 -45.328,-17.64 -15.657,-4.312 -31.82,-7.017 -48.12,-7.341 -8.144,-0.145 -16.319,0.296 -24.395,1.566 -8.071,1.249 -16.058,3.303 -23.654,6.441 -7.591,3.125 -14.789,7.342 -21.019,12.809 -6.181,5.459 -11.367,12.499 -13.572,20.705 -1.1,4.076 -1.463,8.354 -1.073,12.547 0.386,4.196 1.478,8.293 3.071,12.146 3.209,7.725 8.3,14.438 14.096,20.241 5.828,5.807 12.434,10.736 19.397,14.999 6.971,4.263 14.328,7.84 21.88,10.884 15.125,6.069 31.03,9.97 47.106,12.243 16.088,2.266 32.378,2.873 48.581,2.134 16.208,-0.739 32.335,-2.847 48.218,-6.074 7.935,-1.621 15.838,-3.522 23.621,-5.672 7.817,-2.058 15.591,-4.275 23.347,-6.549 6.173,-1.822 12.319,-3.731 18.45,-5.69 0.194,0.221 0.384,0.444 0.578,0.665 5.317,6.084 10.691,12.118 16.122,18.099 10.865,11.959 21.923,23.743 33.18,35.331 22.514,23.178 45.741,45.667 69.769,67.279 24.016,21.62 48.827,42.373 74.558,61.943 25.757,19.525 52.437,37.89 80.35,54.249 27.895,16.342 57.067,30.717 87.68,41.363 7.654,2.648 15.408,5.004 23.222,7.149 7.838,2.062 15.745,3.861 23.72,5.332 7.988,1.402 16.036,2.469 24.121,3.161 8.066,0.644 16.15,1.095 24.242,1.298 32.34,0.829 64.939,-1.999 96.336,-10.203 15.679,-4.105 31.035,-9.563 45.641,-16.651 14.575,-7.105 28.503,-15.767 40.631,-26.672 3.02,-2.735 5.917,-5.615 8.614,-8.692 2.691,-3.079 5.21,-6.339 7.271,-9.956 1.014,-1.817 1.938,-3.712 2.491,-5.839 0.264,-1.064 0.453,-2.197 0.286,-3.454 -0.089,-0.624 -0.292,-1.293 -0.699,-1.901 -0.095,-0.153 -0.223,-0.293 -0.338,-0.435 l -0.335,-0.324 c -0.217,-0.225 -0.469,-0.397 -0.712,-0.581 -2.035,-1.385 -4.321,-1.635 -6.424,-1.698 -2.129,-0.034 -4.2,0.21 -6.234,0.557 -8.112,1.52 -15.716,4.458 -23.169,7.611 -7.427,3.232 -14.674,6.84 -21.699,10.831 7.345,-3.356 14.77,-6.513 22.287,-9.381 3.754,-1.442 7.542,-2.788 11.367,-3.978 3.818,-1.199 7.689,-2.237 11.586,-2.871 1.943,-0.316 3.901,-0.523 5.809,-0.474 1.885,0.051 3.803,0.374 5.121,1.318 0.713,0.542 1.003,0.884 1.107,1.663 0.105,0.749 -0.013,1.652 -0.24,2.537 -0.462,1.786 -1.309,3.559 -2.263,5.256 -1.938,3.401 -4.377,6.566 -6.995,9.556 -2.626,2.99 -5.464,5.808 -8.427,8.488 -11.909,10.696 -25.673,19.254 -40.089,26.267 -14.448,7 -29.661,12.397 -45.206,16.455 -31.131,8.112 -63.503,10.905 -95.651,10.058 -8.044,-0.208 -16.081,-0.662 -24.104,-1.308 -7.999,-0.69 -15.961,-1.752 -23.872,-3.145 -7.899,-1.463 -15.736,-3.251 -23.508,-5.302 -7.75,-2.133 -15.444,-4.476 -23.043,-7.111 C 351.931,262.903 322.911,248.584 295.14,232.288 267.351,215.976 240.766,197.651 215.093,178.162 189.445,158.628 164.705,137.906 140.753,116.313 116.792,94.731 93.623,72.268 71.168,49.119 59.94,37.545 48.912,25.777 38.078,13.835 32.747,7.957 27.473,2.026 22.254,-3.951 c 8.257,-2.671 16.477,-5.457 24.648,-8.381 14.83,-5.326 29.507,-10.999 43.93,-17.48 0.399,0.4 0.884,0.726 1.457,0.916 1.966,0.654 4.089,-0.41 4.743,-2.376 0.107,-0.323 0.152,-0.648 0.17,-0.972 1.555,-0.771 6.62,-3.286 12.964,-6.451"
       style="fill:#9cd7c6;fill-opacity:1;fill-rule:nonzero;stroke:none"
       transform="matrix(1.3333333,0,0,-1.3333333,646.02707,947.14107)"
       clip-path="url(#clipPath4)" />
    <path
       id="path5"
       d="m 0,0 c -7.736,2.255 -15.489,4.453 -23.284,6.492 -7.779,2.134 -15.581,4.004 -23.462,5.603 -15.752,3.182 -31.734,5.251 -47.779,5.964 -16.039,0.713 -32.148,0.092 -48.029,-2.164 -15.868,-2.262 -31.542,-6.131 -46.386,-12.109 -7.412,-2.996 -14.616,-6.511 -21.413,-10.68 -6.79,-4.167 -13.203,-8.97 -18.809,-14.571 -5.58,-5.593 -10.406,-12.02 -13.399,-19.241 -1.491,-3.6 -2.497,-7.389 -2.854,-11.234 -0.359,-3.843 -0.029,-7.732 0.97,-11.449 2.001,-7.475 6.762,-14.018 12.622,-19.202 5.91,-5.193 12.817,-9.26 20.138,-12.278 7.328,-3.034 15.083,-5.039 22.953,-6.261 7.873,-1.245 15.876,-1.683 23.866,-1.547 15.994,0.306 31.922,2.955 47.373,7.199 15.449,4.292 30.462,10.171 44.79,17.397 28.67,14.445 54.692,34.106 76.578,57.598 4.606,4.894 8.944,10.075 13.381,15.202 C 11.521,-3.467 5.772,-1.694 0,0 Z m 107.201,-41.673 c -6.044,3.014 -10.703,5.326 -11.93,5.934 -0.195,-0.106 -0.398,-0.203 -0.616,-0.276 -1.966,-0.653 -4.089,0.411 -4.742,2.377 -0.155,0.466 -0.207,0.941 -0.18,1.403 -14.279,6.391 -28.974,12.049 -43.751,17.328 -8.521,3.034 -17.097,5.915 -25.713,8.673 -4.701,-5.413 -9.302,-10.956 -14.261,-16.234 -22.103,-23.757 -48.384,-43.646 -77.37,-58.275 -14.487,-7.318 -29.674,-13.279 -45.328,-17.64 -15.657,-4.312 -31.82,-7.017 -48.12,-7.341 -8.144,-0.145 -16.319,0.296 -24.395,1.566 -8.071,1.249 -16.058,3.303 -23.654,6.441 -7.591,3.125 -14.789,7.342 -21.019,12.809 -6.181,5.459 -11.367,12.499 -13.572,20.705 -1.1,4.076 -1.463,8.354 -1.073,12.547 0.386,4.196 1.478,8.293 3.071,12.146 3.209,7.725 8.3,14.438 14.096,20.241 5.828,5.807 12.434,10.736 19.397,14.999 6.971,4.263 14.328,7.84 21.88,10.884 15.125,6.069 31.03,9.97 47.106,12.243 16.088,2.266 32.378,2.873 48.581,2.134 16.208,-0.739 32.335,-2.847 48.218,-6.074 7.935,-1.621 15.838,-3.522 23.621,-5.672 7.817,-2.058 15.591,-4.275 23.347,-6.549 6.173,-1.822 12.319,-3.731 18.45,-5.69 0.194,0.221 0.384,0.444 0.578,0.665 5.317,6.084 10.691,12.118 16.122,18.099 10.865,11.959 21.923,23.743 33.18,35.331 22.514,23.178 45.741,45.667 69.769,67.279 24.016,21.62 48.827,42.373 74.558,61.943 25.757,19.525 52.437,37.89 80.35,54.249 27.895,16.342 57.067,30.717 87.68,41.363 7.654,2.648 15.408,5.004 23.222,7.149 7.838,2.062 15.745,3.861 23.72,5.332 7.988,1.402 16.036,2.469 24.121,3.161 8.066,0.644 16.15,1.095 24.242,1.298 32.34,0.829 64.939,-1.999 96.336,-10.203 15.679,-4.105 31.035,-9.563 45.641,-16.651 14.575,-7.105 28.503,-15.767 40.631,-26.672 3.02,-2.735 5.917,-5.615 8.614,-8.692 2.691,-3.079 5.21,-6.339 7.271,-9.956 1.014,-1.817 1.938,-3.712 2.491,-5.839 0.264,-1.064 0.453,-2.197 0.286,-3.454 -0.089,-0.624 -0.292,-1.293 -0.699,-1.901 -0.095,-0.153 -0.223,-0.293 -0.338,-0.435 l -0.335,-0.324 c -0.217,-0.225 -0.469,-0.397 -0.712,-0.581 -2.035,-1.385 -4.321,-1.635 -6.424,-1.698 -2.129,-0.034 -4.2,0.21 -6.234,0.557 -8.112,1.52 -15.716,4.458 -23.169,7.611 -7.427,3.232 -14.674,6.84 -21.699,10.831 7.345,-3.356 14.77,-6.513 22.287,-9.381 3.754,-1.442 7.542,-2.788 11.367,-3.978 3.818,-1.199 7.689,-2.237 11.586,-2.871 1.943,-0.316 3.901,-0.523 5.809,-0.474 1.885,0.051 3.803,0.374 5.121,1.318 0.713,0.542 1.003,0.884 1.107,1.663 0.105,0.749 -0.013,1.652 -0.24,2.537 -0.462,1.786 -1.309,3.559 -2.263,5.256 -1.938,3.401 -4.377,6.566 -6.995,9.556 -2.626,2.99 -5.464,5.808 -8.427,8.488 -11.909,10.696 -25.673,19.254 -40.089,26.267 -14.448,7 -29.661,12.397 -45.206,16.455 -31.131,8.112 -63.503,10.905 -95.651,10.058 -8.044,-0.208 -16.081,-0.662 -24.104,-1.308 -7.999,-0.69 -15.961,-1.752 -23.872,-3.145 -7.899,-1.463 -15.736,-3.251 -23.508,-5.302 -7.75,-2.133 -15.444,-4.476 -23.043,-7.111 C 351.931,262.903 322.911,248.584 295.14,232.288 267.351,215.976 240.766,197.651 215.093,178.162 189.445,158.628 164.705,137.906 140.753,116.313 116.792,94.731 93.623,72.268 71.168,49.119 59.94,37.545 48.912,25.777 38.078,13.835 32.747,7.957 27.473,2.026 22.254,-3.951 c 8.257,-2.671 16.477,-5.457 24.648,-8.381 14.83,-5.326 29.507,-10.999 43.93,-17.48 0.399,0.4 0.884,0.726 1.457,0.916 1.966,0.654 4.089,-0.41 4.743,-2.376 0.107,-0.323 0.152,-0.648 0.17,-0.972 1.555,-0.771 6.62,-3.286 12.964,-6.451"
       style="fill:none;stroke:#9cd7c6;stroke-width:3;stroke-linecap:butt;stroke-linejoin:miter;stroke-miterlimit:4;stroke-dasharray:none;stroke-opacity:1"
       transform="matrix(1.3333333,0,0,-1.3333333,646.02707,947.14107)"
       clip-path="url(#clipPath6)" />
    <path
       id="path7"
       d="m 0,0 c 9.517,-2.984 -49.905,-1.139 -84.682,11.45 -34.777,12.59 -60.217,30.399 -56.822,39.777 3.395,9.378 34.34,6.774 69.117,-5.816 C -37.61,32.822 -16.529,5.184 0,0"
       style="fill:#d4e512;fill-opacity:1;fill-rule:nonzero;stroke:none"
       transform="matrix(1.3333333,0,0,-1.3333333,944.8632,1053.7353)"
       clip-path="url(#clipPath8)" />
    <path
       id="path9"
       d="m 0,0 c -1.138,-1.767 -3.493,-2.276 -5.26,-1.138 -1.766,1.139 -2.276,3.493 -1.138,5.26 1.139,1.767 3.494,2.276 5.26,1.138 C 0.629,4.122 1.138,1.767 0,0"
       style="fill:#2a4260;fill-opacity:1;fill-rule:nonzero;stroke:none"
       transform="matrix(1.3333333,0,0,-1.3333333,759.82053,987.54347)"
       clip-path="url(#clipPath10)" />
  </g>
</svg>
